<?xml version="1.0" standalone="no"?>
<!DOCTYPE svg PUBLIC "-//W3C//DTD SVG 20010904//EN"
 "http://www.w3.org/TR/2001/REC-SVG-20010904/DTD/svg10.dtd">
<svg version="1.0" xmlns="http://www.w3.org/2000/svg"
 width="2500.000000pt" height="2500.000000pt" viewBox="0 0 2500.000000 2500.000000"
 preserveAspectRatio="xMidYMid meet">

<g transform="translate(0.000000,2500.000000) scale(0.100000,-0.100000)"
fill="#000000" stroke="none">
<path d="M10168 23886 c-27 -20 -22 -47 17 -91 19 -22 35 -43 35 -46 0 -4 -12
-9 -27 -12 -16 -3 -71 -15 -123 -25 -52 -11 -98 -18 -102 -16 -11 7 -21 -17
-11 -27 5 -5 22 -12 38 -15 15 -3 30 -6 34 -6 10 -3 55 14 69 25 16 13 72 15
72 3 0 -6 6 -2 13 9 13 16 14 15 9 -14 -3 -23 -7 -29 -13 -20 -6 11 -9 10 -15
-4 -5 -14 -9 -15 -20 -6 -11 9 -15 7 -20 -5 -4 -10 -13 -15 -21 -12 -8 3 -18
-4 -25 -19 -7 -16 -19 -25 -33 -25 -51 0 -49 -45 4 -101 11 -12 18 -26 15 -31
-3 -4 -3 -8 1 -8 3 0 10 11 15 25 6 16 15 23 25 19 8 -3 12 -11 8 -17 -4 -6 0
-8 10 -4 9 3 19 1 23 -5 4 -6 3 -8 -3 -5 -6 4 -14 -1 -17 -10 -6 -15 -8 -15
-16 -3 -7 11 -10 12 -10 2 0 -7 -4 -10 -10 -7 -17 11 -11 -5 20 -51 17 -24 28
-44 24 -44 -4 0 0 -8 8 -17 29 -34 37 -76 24 -127 -7 -25 -16 -43 -21 -39 -4
4 -5 3 -2 -3 4 -6 28 -11 54 -10 l48 1 0 40 c0 22 -4 57 -8 78 -7 33 -6 37 12
37 21 0 24 -6 36 -82 6 -41 14 -44 63 -27 37 13 39 21 41 144 1 54 5 103 8
107 3 5 21 7 42 4 20 -3 68 -10 107 -15 39 -6 100 -14 135 -20 35 -5 102 -12
149 -16 47 -3 112 -10 145 -15 79 -13 296 -39 315 -38 19 0 135 -11 180 -18
19 -3 137 -6 262 -5 141 1 229 -3 233 -9 3 -6 16 -10 28 -10 20 0 20 0 1 -14
-13 -10 -16 -18 -9 -25 15 -15 68 -23 84 -12 12 8 11 12 -4 28 -10 10 -20 17
-22 16 -2 -2 -9 -3 -15 -3 -10 0 -10 2 0 9 24 15 107 -22 95 -42 -3 -7 2 -5
13 4 16 14 38 16 127 13 59 -2 116 -8 128 -14 28 -15 35 -5 22 29 -10 28 -10
29 26 34 20 2 41 0 47 -4 6 -5 20 -2 33 7 17 12 26 13 34 5 15 -15 30 -14 21
2 -6 9 -3 8 8 -1 13 -11 22 -11 40 -1 l23 11 -23 -22 c-13 -12 -21 -24 -19
-26 5 -6 72 -12 174 -18 39 -2 86 -11 104 -20 39 -19 34 -19 53 0 13 12 41 15
138 15 189 1 210 0 204 -10 -3 -4 6 -6 19 -3 14 2 25 7 25 11 0 4 9 7 20 7 13
0 20 -7 20 -20 0 -18 1 -18 19 -2 16 15 20 15 31 1 13 -15 35 -11 25 6 -4 5 0
9 8 9 17 0 40 -24 31 -33 -3 -3 3 -3 14 0 11 2 23 15 26 26 6 21 7 21 20 3 8
-10 20 -15 26 -11 9 6 9 10 -1 16 -11 7 -11 9 1 9 9 0 21 -5 28 -12 8 -8 12
-9 12 -1 0 6 6 10 13 9 21 -3 59 -27 53 -33 -3 -3 -12 -1 -19 6 -17 13 -47 4
-47 -14 0 -14 79 -14 113 0 13 6 16 4 11 -10 -6 -15 -1 -17 47 -12 124 12 238
28 294 42 139 33 351 58 515 59 150 1 170 -1 218 -22 67 -28 102 -29 109 -2 3
11 9 17 14 14 5 -3 14 7 19 21 5 14 14 24 19 20 13 -7 32 29 35 65 1 15 8 36
16 45 8 9 15 44 16 78 1 34 5 71 8 82 8 32 28 89 38 109 6 12 6 16 0 12 -6 -3
-12 -1 -14 5 -2 7 -27 13 -55 14 -28 2 -56 6 -62 9 -7 5 -8 1 -4 -11 5 -14 4
-16 -8 -7 -18 14 -79 17 -79 4 0 -5 -3 -9 -7 -8 -5 0 -15 -1 -23 -5 -25 -9
-70 -15 -70 -8 0 8 -100 6 -128 -3 -16 -5 -29 -3 -41 8 -20 18 -47 21 -56 6
-3 -5 -26 -10 -51 -10 -33 0 -44 -4 -44 -16 0 -8 -4 -12 -10 -9 -5 3 -10 -1
-10 -10 0 -13 -6 -12 -32 8 -18 13 -41 27 -52 31 -15 5 -17 2 -12 -18 5 -19 1
-25 -19 -28 -15 -3 -22 -1 -18 5 3 6 1 7 -5 3 -7 -4 -57 -9 -112 -11 -56 -3
-149 -9 -208 -13 -135 -11 -139 -11 -242 -16 -47 -2 -121 -7 -165 -10 -181
-12 -358 -19 -482 -20 -73 0 -133 -3 -133 -6 0 -8 -64 -5 -79 4 -7 4 -26 2
-42 -4 -23 -10 -39 -10 -67 -2 -78 24 -79 24 -85 2 -5 -19 -11 -20 -114 -15
-59 3 -243 7 -408 10 -165 3 -318 8 -340 10 -22 2 -96 6 -165 10 -69 3 -153
11 -186 16 -46 8 -67 8 -84 -1 -12 -7 -20 -8 -17 -2 4 5 -26 9 -76 10 -190 2
-304 2 -334 -1 -24 -2 -33 1 -33 12 0 14 -1 14 -10 1 -5 -8 -10 -11 -10 -6 0
5 -6 4 -12 -1 -7 -5 -24 -8 -38 -5 -14 2 -42 3 -62 3 -27 -1 -38 4 -38 14 0
14 -24 19 -80 18 -32 -1 -61 -16 -56 -29 3 -8 0 -11 -10 -7 -18 7 -18 13 3 28
14 10 10 13 -27 19 -28 4 -46 3 -50 -4 -4 -6 -16 -12 -28 -13 -16 -1 -18 -4
-11 -14 7 -8 25 -10 51 -7 32 5 39 3 33 -7 -5 -8 -5 -11 0 -7 4 4 22 -3 39
-15 17 -12 45 -22 61 -23 17 0 57 -4 90 -8 33 -4 76 -9 96 -11 20 -2 74 -9
120 -15 46 -6 111 -13 144 -16 77 -6 152 -13 190 -18 180 -24 680 -43 1210
-45 61 0 142 -1 180 -2 39 -1 129 -2 202 -3 116 -1 134 -3 145 -19 16 -22 100
-35 92 -14 -2 7 3 13 13 14 10 1 42 4 71 8 29 4 52 3 52 -2 0 -10 72 -9 112 2
15 4 40 3 55 -2 17 -6 40 -6 58 0 22 7 43 5 75 -6 25 -8 47 -11 48 -6 5 13 32
11 32 -2 0 -5 4 -8 8 -5 4 2 14 1 22 -4 11 -7 21 -2 36 17 12 15 26 23 32 19
17 -10 15 -26 -3 -20 -8 4 -15 1 -15 -5 0 -6 10 -10 23 -10 31 2 89 -10 102
-21 6 -5 16 -5 23 -1 7 4 30 6 50 4 20 -2 48 -4 62 -3 15 0 21 -3 15 -9 -6 -5
-53 -12 -105 -16 -153 -9 -231 -14 -302 -21 -37 -3 -122 -8 -190 -10 -68 -3
-154 -6 -193 -8 -314 -17 -720 -20 -1630 -13 -93 1 -186 -2 -206 -6 -27 -5
-47 -1 -77 13 -27 13 -70 22 -124 25 -81 4 -183 12 -243 20 -16 2 -73 6 -125
10 -52 3 -162 13 -245 21 -186 20 -189 22 -188 126 1 47 6 76 15 83 19 15 21
35 3 28 -14 -5 -55 30 -55 46 0 7 -23 11 -71 14 -20 1 -26 7 -24 19 2 10 0 18
-5 18 -10 0 -7 80 3 97 14 22 -38 30 -65 9z m4752 -152 c0 -8 -19 -13 -24 -6
-3 5 1 9 9 9 8 0 15 -2 15 -3z m-4690 -63 c0 -5 -7 -11 -14 -14 -10 -4 -13 -1
-9 9 6 15 23 19 23 5z m410 -42 c0 -5 -4 -9 -8 -9 -5 0 -9 7 -9 15 0 8 4 12 9
9 4 -3 8 -9 8 -15z m3410 -159 c-18 -12 -30 -13 -30 -2 0 4 10 9 22 9 18 2 20
0 8 -7z m70 -25 c15 5 20 4 16 -4 -12 -19 -56 -13 -56 7 0 13 2 14 9 3 6 -8
16 -11 31 -6z m-55 -5 c3 -5 2 -10 -4 -10 -5 0 -13 5 -16 10 -3 6 -2 10 4 10
5 0 13 -4 16 -10z m-1791 -108 c3 -5 -1 -9 -9 -9 -8 0 -15 4 -15 9 0 4 4 8 9
8 6 0 12 -4 15 -8z m604 -7 c3 -3 -8 -5 -26 -3 -18 1 -32 6 -32 10 0 9 48 3
58 -7z m-488 -16 c0 -11 -21 -12 -45 -3 -12 5 -13 9 -5 14 15 9 50 1 50 -11z"/>
<path d="M14825 23840 c3 -5 11 -10 16 -10 6 0 7 5 4 10 -3 6 -11 10 -16 10
-6 0 -7 -4 -4 -10z"/>
<path d="M13740 23732 c0 -12 40 -44 51 -40 6 2 1 13 -11 26 -21 22 -40 29
-40 14z"/>
<path d="M12630 23629 c0 -5 5 -7 10 -4 6 3 10 8 10 11 0 2 -4 4 -10 4 -5 0
-10 -5 -10 -11z"/>
<path d="M14953 23325 c0 -8 4 -12 9 -9 5 3 6 10 3 15 -9 13 -12 11 -12 -6z"/>
<path d="M12510 23311 c-8 -6 -17 -8 -21 -5 -12 7 -4 -23 10 -40 15 -18 41
-22 41 -6 0 6 10 14 21 18 20 8 20 9 4 25 -14 15 -20 15 -33 5 -12 -10 -14
-10 -8 0 9 14 6 15 -14 3z"/>
<path d="M13420 23185 c-11 -13 -10 -14 4 -9 9 3 16 10 16 15 0 13 -6 11 -20
-6z"/>
<path d="M13315 23180 c-3 -6 5 -10 19 -10 14 0 28 5 31 10 3 6 -5 10 -19 10
-14 0 -28 -4 -31 -10z"/>
<path d="M14789 23042 c17 -32 51 -56 62 -45 8 8 1 18 -24 37 -40 30 -51 33
-38 8z"/>
<path d="M14390 23047 c-3 -3 -39 -7 -80 -11 -90 -7 -140 -15 -160 -26 -8 -4
-37 -11 -65 -14 -27 -4 -63 -11 -80 -16 -16 -5 -111 -20 -210 -35 -99 -14
-202 -31 -230 -37 -27 -6 -69 -10 -92 -9 -34 1 -45 -3 -53 -20 -15 -28 -9 -32
53 -36 78 -5 77 -5 77 -20 0 -7 7 -13 15 -13 8 0 15 -4 15 -8 0 -5 15 -9 33
-10 42 -2 87 -18 87 -32 0 -11 -10 -13 -57 -10 -23 1 -33 -3 -33 -13 0 -12 16
-16 63 -19 79 -6 267 -43 375 -75 l83 -25 -7 -34 c-4 -24 -3 -34 7 -34 7 0 9
-3 6 -7 -4 -3 1 -12 11 -20 16 -13 16 -14 -4 -10 -12 2 -21 -1 -21 -8 0 -7 6
-11 14 -8 7 3 13 1 13 -5 0 -12 -122 -7 -190 7 -41 9 -195 29 -263 35 -16 1
-33 -5 -40 -13 -6 -9 -7 -13 -3 -9 5 4 16 2 24 -4 8 -7 21 -13 31 -15 42 -8
91 -14 146 -18 33 -2 87 -9 120 -15 33 -5 89 -14 125 -19 36 -5 85 -16 110
-25 45 -16 45 -16 -67 -12 -65 3 -113 1 -113 -5 0 -5 10 -11 23 -13 123 -24
136 -28 142 -47 10 -29 -2 -39 -48 -39 -36 0 -46 5 -70 35 -28 36 -58 44 -87
25 -13 -9 -13 -11 0 -20 8 -5 11 -10 5 -11 -17 -2 -69 1 -108 7 -31 5 -37 9
-32 25 5 14 0 20 -21 25 -22 6 -31 2 -49 -20 -24 -30 -52 -31 -84 -2 -16 14
-31 17 -65 14 -31 -4 -49 -1 -59 10 -13 13 -19 13 -47 -2 -18 -8 -36 -14 -40
-11 -8 5 -29 8 -148 25 -40 5 -80 14 -89 19 -10 5 -30 5 -50 -1 -18 -5 -73 -7
-121 -4 -69 3 -88 7 -90 20 -2 9 2 16 8 16 6 0 8 5 5 10 -4 6 -2 17 5 25 12
15 101 11 155 -6 17 -6 111 -14 210 -19 99 -5 191 -11 205 -15 14 -3 63 -9
110 -11 47 -3 96 -10 110 -15 15 -5 37 -5 55 0 19 5 25 10 15 13 -8 3 -31 10
-51 17 -19 6 -59 11 -88 11 -28 0 -68 7 -88 15 -19 8 -50 15 -69 15 -36 0 -55
17 -30 26 9 3 16 11 16 16 0 6 -6 8 -14 5 -8 -3 -17 -3 -20 1 -14 13 -186 24
-186 11 0 -5 0 -12 0 -16 0 -5 4 -8 9 -8 5 0 13 -3 17 -7 6 -7 -9 -5 -41 3 -5
1 -18 -1 -28 -6 -10 -4 -23 -2 -31 4 -8 7 -18 11 -22 10 -20 -3 -35 2 -30 10
3 4 17 6 31 3 16 -3 25 0 25 8 0 7 -7 10 -16 6 -8 -3 -24 -1 -34 4 -13 7 -21
7 -25 0 -4 -7 -14 -6 -28 2 -20 10 -21 10 -9 -5 12 -14 11 -16 -6 -14 -13 1
-18 6 -14 15 4 12 1 13 -13 4 -13 -7 -24 -6 -38 2 -14 8 -21 8 -24 0 -4 -11
-120 -11 -208 1 -97 13 -539 21 -838 15 -48 -1 -76 4 -93 15 -14 9 -60 28
-102 42 -42 14 -87 36 -100 49 -13 13 -31 24 -40 24 -9 1 -28 7 -42 16 -23 14
-19 14 55 9 107 -7 553 19 568 34 8 8 2 11 -24 13 -53 2 -57 3 -66 12 -5 5 -2
6 6 1 10 -6 12 -4 7 4 -5 8 -12 9 -19 3 -18 -14 -57 4 -57 27 0 35 -63 43 -80
11 -7 -12 -16 -18 -23 -13 -7 4 -18 8 -26 10 -7 1 -19 7 -25 14 -8 9 -8 10 2
5 6 -4 12 -3 12 2 0 16 -82 40 -150 46 -36 2 -73 7 -82 11 -12 5 -18 2 -18 -6
0 -10 -2 -11 -8 -3 -10 17 -84 22 -88 6 -1 -7 0 -8 2 -3 6 10 44 3 44 -9 0 -6
-19 -6 -64 -1 -4 1 -6 7 -3 15 4 9 -4 13 -23 14 -16 0 -38 6 -50 12 -12 6 -45
13 -73 15 -118 8 -213 21 -228 31 -5 3 -18 0 -29 -6 -16 -9 -25 -8 -36 1 -8 6
-14 8 -14 4 0 -4 -6 -3 -12 2 -7 6 -20 11 -28 11 -44 2 -109 11 -138 21 -19 5
-73 9 -120 8 -68 -2 -98 -8 -137 -27 l-50 -23 60 -7 c69 -8 82 -13 189 -87 43
-29 102 -62 131 -71 37 -13 49 -21 41 -28 -6 -6 -18 -8 -25 -6 -14 5 -14 -14
5 -225 5 -48 1 -80 -15 -132 -26 -87 -26 -89 3 -84 13 3 27 0 30 -6 4 -5 14
-8 24 -5 9 2 1 -3 -18 -13 -19 -9 -45 -16 -58 -16 -12 0 -36 -12 -53 -28 -41
-39 -146 -96 -192 -104 -21 -4 -68 -8 -105 -9 -37 0 -69 -5 -71 -11 -2 -5 13
-19 35 -30 38 -20 47 -28 44 -41 -1 -4 4 -10 11 -15 10 -6 10 -11 0 -23 -11
-13 -11 -17 3 -22 22 -9 20 -22 -4 -20 -25 1 -103 75 -96 92 6 15 -21 47 -33
40 -4 -3 -32 1 -62 9 -30 8 -78 15 -106 15 -34 0 -53 4 -53 12 0 6 -2 9 -5 6
-10 -9 18 -59 30 -54 7 2 18 1 25 -4 9 -6 7 -10 -9 -15 -21 -6 -21 -7 9 -38
16 -17 30 -36 30 -42 0 -6 11 -22 25 -35 35 -33 61 -18 57 33 -2 19 2 38 7 42
6 3 8 11 5 17 -4 6 -1 9 7 6 8 -3 14 -11 14 -19 0 -7 14 -21 31 -29 40 -19
144 -111 144 -127 0 -7 -9 -17 -20 -23 -17 -9 -20 -19 -18 -63 l3 -52 -49 -5
c-31 -3 -53 -11 -60 -22 -15 -25 -2 -31 36 -18 39 14 88 0 88 -25 0 -8 5 -24
11 -34 7 -10 9 -30 5 -46 -7 -27 -7 -27 -27 -9 -15 13 -19 26 -15 46 7 35 -18
39 -35 6 -7 -13 -25 -39 -41 -58 -15 -19 -28 -44 -28 -57 0 -12 -5 -34 -10
-49 -13 -34 13 -108 43 -121 l21 -10 -22 -5 c-17 -5 -23 -1 -28 18 -3 13 -10
21 -16 18 -5 -3 -7 -13 -4 -21 3 -8 1 -11 -4 -8 -19 12 -10 -37 16 -81 39 -66
62 -62 149 31 76 81 104 94 147 64 14 -11 31 -19 37 -19 6 0 15 -9 21 -20 14
-27 50 -27 45 -1 -3 16 0 18 15 13 10 -4 19 -11 18 -17 -1 -21 -18 -55 -27
-55 -5 0 -27 -19 -49 -42 -51 -54 -61 -104 -32 -160 23 -44 28 -80 8 -60 -7 7
-20 12 -30 12 -16 0 -18 -5 -12 -37 4 -21 11 -41 17 -44 5 -4 6 -12 2 -18 -4
-8 1 -10 19 -7 29 5 37 -9 24 -43 -12 -32 -1 -77 24 -101 l20 -19 -22 -35 -22
-36 25 -29 c13 -16 30 -49 37 -75 12 -42 31 -59 44 -37 3 5 22 12 42 16 20 3
47 13 59 21 23 15 42 20 105 31 19 3 54 11 78 19 23 8 59 14 80 14 49 0 66 12
59 41 -5 19 -1 27 20 36 25 12 25 11 19 -18 -5 -28 -4 -30 22 -27 26 3 27 5
25 53 -2 45 -1 47 6 16 13 -49 33 -65 67 -54 39 13 44 48 37 248 -3 88 -6 181
-7 207 -1 27 -5 48 -10 48 -4 0 -6 7 -2 15 3 8 1 15 -4 15 -17 0 -23 -74 -17
-222 4 -91 3 -148 -3 -148 -6 0 -10 10 -9 23 0 12 -3 97 -7 188 -5 111 -3 187
4 225 6 33 12 81 14 107 1 27 5 50 9 53 10 6 21 -30 19 -64 -4 -61 0 -93 12
-86 6 4 8 3 4 -4 -3 -6 2 -15 11 -21 17 -10 17 -10 -2 -11 -11 -1 -15 -4 -8
-6 7 -3 9 -12 6 -20 -3 -9 0 -14 7 -12 10 2 13 -53 12 -259 -1 -219 2 -263 13
-263 14 0 38 67 29 81 -2 4 1 11 7 15 8 5 10 -2 7 -24 -3 -21 0 -33 9 -37 8
-2 11 -9 8 -15 -3 -5 -2 -10 4 -10 22 0 32 106 25 283 l-7 178 32 40 c18 22
30 46 28 54 -5 12 19 26 51 29 7 1 17 7 21 15 7 10 11 9 22 -6 8 -11 22 -22
32 -26 9 -3 17 -11 17 -17 0 -15 -32 -12 -54 5 -26 20 -37 2 -24 -36 8 -25 14
-27 51 -26 40 2 42 1 44 -28 1 -28 19 -69 53 -122 17 -26 35 -30 44 -8 9 24
24 17 31 -15 5 -21 2 -39 -10 -56 -15 -23 -17 -24 -38 -9 -12 8 -23 20 -23 25
-1 6 -2 14 -3 18 0 5 -8 9 -17 9 -14 0 -14 -2 -3 -11 8 -6 16 -22 17 -36 2
-14 8 -29 13 -34 5 -6 9 -18 9 -28 0 -10 5 -18 10 -18 6 0 10 11 10 25 0 14 4
25 9 25 17 0 59 -64 63 -94 2 -16 8 -31 14 -33 18 -6 25 40 9 64 -22 32 -30
120 -15 149 11 20 11 29 -4 56 -14 26 -16 41 -9 68 11 42 39 50 71 19 31 -28
39 -17 14 18 -31 44 -91 97 -99 89 -6 -5 -14 -49 -24 -131 -1 -5 0 -16 2 -24
2 -7 -1 -15 -7 -18 -25 -9 -68 167 -44 182 4 3 6 13 3 23 -2 10 2 24 11 31 18
15 52 0 61 -28 3 -11 15 -18 30 -18 52 0 148 -92 197 -188 36 -68 78 -285 56
-285 -15 0 -8 -28 8 -34 9 -3 18 -6 21 -6 11 0 -5 195 -22 270 -9 41 -32 103
-51 137 -19 34 -34 73 -34 87 0 18 -10 32 -33 48 -29 19 -77 77 -77 93 0 13
36 -1 55 -22 18 -19 23 -20 45 -7 14 7 20 13 14 14 -12 0 -27 40 -19 48 2 3
23 -12 46 -32 52 -44 69 -46 69 -7 0 16 6 33 13 39 10 9 17 -8 31 -86 10 -53
22 -102 27 -108 14 -17 18 -75 18 -286 1 -160 3 -188 16 -188 17 0 17 -7 16
296 0 110 4 236 8 279 11 98 -4 341 -22 359 -10 11 -15 10 -26 -1 -11 -12 -15
-12 -26 4 -6 10 -15 32 -19 48 -4 17 -21 42 -37 57 -16 15 -29 33 -29 41 0 8
-8 22 -19 31 -15 14 -28 15 -67 9 l-49 -9 25 -25 c35 -36 57 -64 43 -56 -6 4
-14 3 -18 -3 -3 -5 -19 -8 -35 -6 -16 2 -28 1 -27 -3 3 -10 -12 -14 -41 -8
-33 7 -43 47 -11 47 10 0 19 5 19 11 0 5 -4 8 -9 5 -12 -8 -35 30 -57 94 -11
30 -22 57 -25 60 -15 11 -49 82 -44 90 3 5 30 -3 60 -16 67 -31 145 -41 145
-19 0 8 -9 15 -20 15 -25 0 -70 20 -94 42 -11 10 -23 18 -26 18 -7 0 -40 72
-40 88 0 16 20 11 44 -10 11 -10 26 -18 33 -18 14 0 35 34 27 43 -3 3 8 8 24
12 22 4 36 1 51 -12 12 -10 25 -18 29 -17 16 1 29 -24 35 -71 6 -40 3 -56 -12
-79 l-20 -29 31 -29 c37 -35 39 -35 36 0 -3 31 3 32 85 12 36 -9 52 -9 60 -1
6 6 26 11 43 11 18 0 35 4 38 9 3 4 32 16 65 25 46 13 79 15 137 10 73 -7 77
-9 88 -36 8 -23 16 -28 43 -28 39 0 58 -27 49 -74 -7 -36 2 -53 35 -70 29 -14
38 -56 28 -127 -11 -75 -11 -161 0 -155 14 9 21 64 22 169 0 76 4 101 18 118
17 21 18 21 50 4 34 -17 34 -17 57 12 19 23 23 25 29 12 3 -10 1 -37 -5 -60
-7 -24 -14 -55 -16 -69 -3 -14 -6 -30 -9 -37 -2 -7 2 -10 8 -7 28 10 89 -85
85 -132 -3 -38 2 -44 57 -61 30 -8 30 -9 27 -71 -4 -57 -2 -62 16 -62 12 0 24
-4 27 -10 10 -16 42 -12 49 6 3 9 6 27 6 42 0 18 3 23 10 16 6 -6 15 -74 21
-152 17 -243 28 -221 42 84 2 56 21 65 25 12 2 -17 7 -37 12 -43 5 -7 7 -15 3
-18 -3 -4 1 -7 11 -7 28 0 38 -49 42 -220 5 -215 5 -211 15 -170 5 19 7 64 4
100 -3 36 1 127 10 203 8 77 13 143 10 148 -10 15 14 209 30 239 21 40 19 58
-7 62 -21 3 -23 9 -26 66 -3 64 -10 74 -33 46 -7 -8 -21 -13 -31 -11 -27 7
-48 -19 -43 -53 2 -17 0 -28 -4 -26 -4 3 -8 19 -9 36 -1 49 -34 95 -64 93 -25
-1 -26 1 -30 55 -4 68 9 86 50 71 15 -6 35 -17 44 -26 33 -30 78 9 63 56 -4
15 1 21 26 30 18 6 43 11 56 11 27 0 83 -26 83 -39 0 -5 13 -14 30 -21 25 -10
34 -9 63 9 25 15 36 18 45 9 12 -12 -14 -38 -50 -51 -27 -10 -21 -36 10 -43
15 -4 41 -21 57 -38 17 -17 44 -41 60 -52 25 -19 28 -25 18 -45 l-11 -24 -7
28 c-9 35 -21 34 -40 -3 -16 -32 -21 -135 -6 -145 12 -7 38 19 46 46 5 16 10
18 21 8 15 -12 22 1 43 79 9 30 24 51 63 82 29 23 65 44 80 47 15 3 28 12 28
20 0 10 5 11 16 5 19 -11 81 -3 63 9 -7 4 -21 3 -30 -2 -27 -14 -33 8 -7 25
13 8 42 20 65 26 52 16 65 45 19 44 -17 0 -44 -6 -59 -12 -16 -7 -34 -12 -41
-12 -17 0 -29 41 -16 54 12 12 13 29 2 22 -17 -10 -4 46 16 72 18 23 23 25 31
12 6 -8 11 -19 11 -25 0 -5 -5 -3 -10 5 -6 9 -10 10 -10 3 0 -13 30 -33 49
-33 6 0 8 7 5 15 -7 17 14 48 26 40 4 -3 10 2 14 10 5 14 -5 19 -31 16 -7 -1
-13 7 -13 19 0 28 16 25 51 -9 36 -37 36 -49 -1 -96 -17 -21 -28 -40 -26 -42
3 -3 27 7 55 21 28 14 51 22 51 18 0 -3 7 4 17 17 15 23 15 25 -5 41 -14 12
-18 20 -11 27 7 7 7 13 -2 18 -8 5 -10 4 -5 -3 4 -7 2 -12 -4 -12 -6 0 -13 7
-17 16 -3 9 -21 30 -39 48 -50 49 -84 103 -84 136 0 16 -5 41 -11 57 -18 47
-12 142 16 237 35 120 65 161 158 214 62 35 87 44 143 49 84 7 130 -10 168
-60 36 -46 44 -81 51 -200 5 -97 -3 -136 -26 -121 -5 3 -10 0 -10 -5 -6 -51
-32 -91 -77 -121 -55 -37 -103 -39 -169 -8 -57 27 -123 93 -123 122 2 68 67
163 135 196 36 17 42 24 32 35 -7 7 -15 11 -19 8 -5 -2 -8 0 -8 6 0 16 31 27
83 30 50 3 69 -10 125 -84 l23 -30 -5 37 c-6 45 -49 111 -82 127 -38 17 -133
13 -179 -8 -38 -17 -100 -81 -100 -103 0 -5 -8 -15 -18 -23 -10 -7 -19 -26
-22 -41 -2 -16 -10 -50 -18 -76 -8 -26 -12 -49 -9 -52 3 -4 -1 -6 -9 -6 -12 0
-12 -2 0 -9 12 -8 12 -12 2 -25 -11 -13 -11 -16 2 -16 9 0 19 -5 23 -12 4 -6
3 -8 -4 -4 -7 4 -10 -1 -9 -14 1 -11 5 -20 10 -20 4 0 5 -5 1 -11 -4 -8 -9 -7
-15 2 -15 24 -18 4 -4 -24 14 -27 11 -57 -6 -57 -4 0 -6 -7 -3 -15 4 -8 12
-15 20 -15 8 0 14 -5 14 -11 0 -5 5 -7 12 -3 7 5 9 2 5 -8 -4 -11 0 -15 11
-13 29 4 34 -6 11 -26 -12 -10 -17 -19 -11 -19 6 0 13 4 17 10 3 5 12 7 20 4
8 -4 12 -10 9 -15 -3 -5 -11 -6 -17 -2 -7 4 -6 0 2 -10 7 -9 16 -17 19 -17 3
0 3 3 -1 6 -9 9 21 36 32 30 5 -4 17 1 25 10 15 14 16 14 16 -5 0 -12 -6 -21
-13 -21 -8 0 -24 -9 -37 -20 -31 -27 -7 -26 30 2 17 12 30 30 30 40 0 11 5 16
10 13 6 -4 8 -11 5 -16 -4 -5 5 -9 19 -9 14 0 27 4 30 9 3 5 32 12 63 16 74 9
101 24 145 77 61 75 65 88 74 213 5 70 3 90 -21 160 -24 69 -44 153 -29 118 3
-7 11 -13 18 -13 7 0 18 -16 26 -35 8 -19 18 -35 22 -35 5 0 4 9 -2 20 -6 10
-9 23 -8 27 4 19 -17 70 -38 91 -23 23 -51 22 -37 -1 3 -7 -16 9 -44 35 -66
61 -123 78 -283 84 -69 3 -128 3 -130 1z m-2593 -183 c-3 -3 -12 -4 -19 -1 -8
3 -5 6 6 6 11 1 17 -2 13 -5z m123 -5 c0 -5 5 -7 12 -3 7 4 8 3 4 -4 -10 -16
-27 -15 -50 3 -19 14 -19 15 7 15 15 0 27 -5 27 -11z m174 -18 c4 -5 -3 -7
-14 -4 -23 6 -26 13 -6 13 8 0 17 -4 20 -9z m-409 -199 c25 -17 68 -38 95 -48
50 -18 74 -43 42 -45 -9 -1 -40 -2 -69 -3 -29 -1 -55 -5 -59 -9 -4 -4 -28 -7
-53 -7 -25 0 -71 -4 -102 -9 -31 -5 -103 -13 -160 -16 -57 -4 -107 -9 -111
-12 -5 -2 -8 1 -8 7 0 6 -4 9 -8 6 -16 -10 -31 11 -38 50 l-6 41 60 22 c125
47 193 61 284 57 77 -3 92 -7 133 -34z m1775 -117 c6 -3 10 -11 10 -17 0 -7
-4 -7 -13 1 -8 6 -16 9 -19 6 -3 -3 -11 1 -17 9 -11 13 -9 15 8 11 12 -2 26
-7 31 -10z m-578 -54 c19 -1 33 -35 22 -52 -4 -8 -9 -7 -15 2 -7 12 -9 12 -9
0 0 -9 -6 -11 -17 -6 -10 4 -40 9 -67 11 -28 2 -54 8 -60 14 -6 6 -14 6 -22
-1 -8 -7 -14 -6 -20 2 -4 7 -3 9 3 6 6 -4 13 -1 16 7 3 7 20 13 37 14 18 0 34
2 35 4 4 3 58 3 97 -1z m-859 -36 c8 -8 17 -11 21 -8 3 4 6 -1 6 -10 0 -19
-15 -23 -25 -7 -4 7 -12 7 -25 0 -10 -5 -44 -8 -74 -6 -31 2 -56 1 -56 -3 0
-3 -17 -7 -37 -8 -21 -1 -58 -2 -83 -4 -90 -5 -194 1 -184 10 5 5 62 16 128
25 65 8 121 18 124 21 3 3 47 5 98 5 68 0 96 -4 107 -15z m-865 -41 c23 -4 27
-14 5 -14 -11 0 -27 8 -34 17 -12 15 -12 16 1 8 8 -5 21 -10 28 -11z m116 -26
c5 -10 7 -10 12 0 8 17 21 15 21 -3 0 -12 -10 -15 -37 -13 -20 1 -41 -2 -48
-6 -8 -5 -10 -2 -6 8 3 9 10 14 14 11 5 -3 11 -1 15 5 8 14 22 13 29 -2z
m3033 -40 c26 -24 30 -48 9 -48 -8 0 -35 -21 -61 -47 -39 -40 -45 -44 -40 -23
4 14 18 36 30 50 18 20 21 30 14 48 -17 45 10 56 48 20z m-1337 -3 c5 -3 3
-18 -3 -35 -15 -39 1 -84 31 -88 20 -3 22 1 22 50 0 73 8 81 72 81 128 -1 125
0 137 -34 16 -46 14 -49 -19 -42 -26 5 -30 3 -30 -16 0 -14 8 -23 24 -27 14
-3 27 -12 30 -20 3 -8 17 -14 31 -14 22 0 25 4 25 39 l0 40 41 -2 c54 -3 62
18 13 30 -21 4 -39 14 -42 21 -8 26 203 6 219 -20 12 -19 -11 -28 -63 -26 -55
2 -73 -8 -34 -18 39 -9 166 12 179 30 10 13 24 14 84 8 40 -5 75 -11 79 -14 8
-8 -15 -78 -25 -78 -5 0 -12 -15 -17 -32 -9 -30 -13 -33 -52 -34 -24 0 -45 3
-48 8 -3 5 -9 6 -14 3 -5 -3 -3 9 4 27 14 37 14 47 2 66 -14 23 -36 -7 -36
-49 0 -41 -4 -44 -58 -39 -12 1 -53 -8 -90 -19 -37 -11 -109 -23 -159 -26 -88
-7 -115 -18 -75 -32 24 -9 50 -37 54 -59 2 -14 -4 -18 -30 -20 -28 -1 -37 5
-66 46 -34 47 -59 61 -131 74 -100 19 -131 24 -140 27 -5 2 -25 -1 -44 -5 -36
-9 -62 7 -67 41 -1 10 -5 33 -8 51 -4 29 -1 35 26 52 l32 19 -25 9 c-13 5 -27
8 -31 5 -5 -2 -8 1 -8 6 0 6 -3 10 -7 10 -25 -4 -34 4 -13 12 25 8 215 3 230
-6z m-260 -1 c0 -8 -19 -13 -24 -6 -3 5 1 9 9 9 8 0 15 -2 15 -3z m-686 -10
c10 -4 16 -18 16 -41 0 -20 9 -46 20 -60 24 -31 26 -66 4 -84 -22 -18 -142
-14 -164 6 -9 8 -21 15 -27 15 -20 0 -23 31 -6 56 13 20 21 24 42 19 14 -4 33
-13 42 -21 22 -19 36 -18 49 6 12 22 3 47 -26 71 -12 9 -15 9 -10 2 4 -8 2
-13 -7 -13 -26 0 -13 30 17 39 17 5 32 10 33 10 1 1 8 -2 17 -5z m150 -9 c-6
-13 -42 -17 -49 -4 -3 5 1 6 9 3 9 -3 16 -2 16 3 0 5 6 10 14 10 8 0 12 -5 10
-12z m457 -91 c3 -65 0 -73 -32 -90 -17 -8 -28 -11 -25 -6 4 6 2 13 -4 17 -5
3 -10 -1 -10 -9 0 -9 -5 -16 -11 -16 -6 0 -9 6 -6 13 2 6 0 21 -6 32 -9 18 -9
19 6 6 10 -7 18 -11 18 -7 2 10 6 25 9 34 1 4 2 10 1 15 0 4 7 7 17 8 14 0 14
2 -3 9 -16 7 -17 9 -3 9 18 1 34 19 25 27 -3 3 -16 0 -29 -6 -23 -11 -23 -11
1 8 32 25 49 10 52 -44z m1377 14 c2 -8 -13 -38 -33 -66 -19 -28 -35 -56 -35
-61 0 -10 -51 -33 -84 -36 -19 -2 -25 4 -34 31 -5 19 -7 34 -2 34 14 0 18 49
4 54 -18 7 -17 36 0 59 15 19 27 23 24 6 -2 -6 5 -16 14 -22 15 -10 22 -7 43
15 24 26 27 26 62 14 21 -7 39 -20 41 -28z m-1502 20 c-1 -7 -5 -19 -9 -25 -5
-7 -6 -16 -3 -21 2 -4 -2 -15 -9 -25 -11 -15 -13 -15 -18 -2 -4 8 -1 14 6 12
7 -1 11 7 9 21 -2 12 2 22 7 22 6 0 10 3 10 8 -2 11 1 22 5 22 2 0 3 -6 2 -12z
m20 -44 c-15 -32 -20 -22 -11 23 6 30 9 34 14 19 4 -11 3 -30 -3 -42z m-1248
-34 c31 -46 10 -52 -28 -8 -34 38 -37 51 -13 46 10 -2 28 -19 41 -38z m-136
-53 c-6 -12 -52 33 -52 51 0 10 10 5 28 -14 16 -16 27 -33 24 -37z m-167 23
c7 -12 -2 -12 -30 0 -19 8 -19 9 2 9 12 1 25 -3 28 -9z m820 -38 c-3 -3 -10
-1 -16 5 -6 6 -18 9 -25 6 -8 -3 -14 1 -14 10 0 24 23 27 43 5 10 -12 15 -23
12 -26z m-1012 -4 c33 -38 39 -58 17 -58 -5 0 -6 7 -3 17 5 11 3 14 -6 8 -13
-7 -71 46 -71 66 0 21 29 6 63 -33z m97 38 c0 -3 -4 -8 -10 -11 -5 -3 -10 -1
-10 4 0 6 5 11 10 11 6 0 10 -2 10 -4z m2900 -18 c0 -19 -2 -20 -10 -8 -13 19
-13 30 0 30 6 0 10 -10 10 -22z m-1750 -28 c0 -6 -8 -13 -17 -16 -10 -3 -25
-9 -34 -14 -21 -11 -40 2 -30 19 5 7 13 11 19 7 6 -3 13 -2 17 4 8 13 45 13
45 0z m-754 -51 c29 -27 51 -65 58 -101 3 -19 0 -24 -21 -26 -14 -1 -22 2 -18
8 4 6 11 8 16 5 5 -4 9 -4 9 -1 0 3 -10 10 -21 17 -17 9 -20 8 -13 -2 12 -20
-47 29 -64 52 -17 24 -7 78 13 75 8 -1 26 -13 41 -27z m-226 17 c0 -3 -4 -8
-10 -11 -5 -3 -10 -1 -10 4 0 6 5 11 10 11 6 0 10 -2 10 -4z m2445 -14 c-3 -3
-11 0 -18 7 -9 10 -8 11 6 5 10 -3 15 -9 12 -12z m-2645 -21 c0 -11 -3 -12
-11 -4 -6 6 -19 9 -28 6 -12 -4 -13 -2 -3 4 20 15 42 11 42 -6z m3332 -33 c-2
-10 -9 -21 -15 -25 -6 -3 -7 -1 -3 5 11 19 -5 14 -20 -5 -12 -15 -12 -13 -2
17 16 47 31 63 39 42 3 -9 4 -25 1 -34z m-102 22 c0 -5 -8 -7 -17 -4 -17 5
-17 5 -1 -6 17 -10 14 -45 -3 -34 -5 3 -9 2 -9 -3 0 -14 -59 -43 -75 -37 -17
7 -21 44 -4 44 5 0 7 5 4 10 -4 6 5 10 20 10 14 0 24 4 20 9 -3 5 3 12 12 14
32 8 53 7 53 -3z m-2363 -45 c21 -11 32 -24 35 -44 l4 -30 -25 20 c-29 23 -31
22 -51 -58 -8 -33 -16 -43 -31 -43 -11 0 -17 -4 -14 -10 3 -5 -1 -10 -10 -10
-8 0 -21 11 -27 25 -17 38 -30 30 -27 -17 4 -49 -11 -60 -31 -22 -15 27 -46
44 -83 44 -12 0 -37 9 -56 21 -33 20 -33 20 -15 41 26 29 76 48 126 48 32 0
46 5 55 19 11 18 34 24 99 29 11 1 35 -5 51 -13z m-937 -25 c8 -5 11 -12 7
-16 -4 -4 0 -16 10 -26 23 -26 4 -22 -31 5 -37 30 -25 62 14 37z m95 0 c3 -6
-2 -7 -12 -4 -13 4 -11 0 5 -12 24 -18 75 -27 66 -12 -3 4 4 8 16 8 12 0 36
-15 53 -33 18 -19 39 -37 47 -40 10 -3 7 -6 -9 -6 -19 -1 -21 -4 -12 -15 10
-12 9 -14 -6 -11 -10 2 -21 4 -25 4 -5 1 -8 9 -8 19 0 14 -2 15 -10 2 -7 -12
-10 -8 -10 15 0 23 -3 27 -10 15 -8 -13 -10 -12 -10 3 0 10 -4 16 -9 12 -5 -3
-12 -1 -15 4 -3 5 -16 7 -27 4 -15 -4 -27 1 -40 18 -10 13 -19 27 -19 32 0 11
28 9 35 -3z m59 -12 c-3 -4 -9 -8 -15 -8 -5 0 -9 4 -9 8 0 5 7 9 15 9 8 0 12
-4 9 -9z m2436 -8 c0 -5 -2 -10 -4 -10 -3 0 -8 5 -11 10 -3 6 -1 10 4 10 6 0
11 -4 11 -10z m-2090 -34 c33 13 52 13 43 1 -5 -7 -10 -23 -11 -36 0 -13 -3
-26 -6 -28 -12 -12 -68 22 -82 49 -19 37 -9 53 19 28 12 -12 28 -18 37 -14z
m2146 -2 c-6 -16 -8 -16 -20 2 -11 14 -11 21 -3 26 17 10 31 -7 23 -28z m-88
-49 c13 -36 13 -44 -1 -78 -9 -20 -20 -37 -26 -37 -21 0 -38 31 -39 75 -4 88
39 114 66 40z m-2552 -22 c-3 -8 -6 -20 -6 -26 0 -7 -9 1 -19 17 -23 35 -18
51 10 35 12 -6 18 -17 15 -26z m1129 21 c9 -9 14 -22 11 -29 -3 -8 1 -16 8
-18 8 -3 17 -18 20 -33 4 -15 16 -41 28 -56 11 -16 22 -49 24 -74 4 -39 2 -46
-16 -51 -11 -3 -20 -8 -20 -12 0 -4 -8 -7 -19 -7 -13 0 -18 7 -17 28 1 30 -14
40 -24 17 -23 -51 -50 -94 -59 -92 -6 2 -8 -4 -4 -13 4 -12 8 -12 13 -4 4 7
13 9 19 6 16 -10 14 -26 -4 -26 -8 0 -15 -4 -15 -10 0 -5 -13 -10 -28 -10 -35
0 -74 47 -65 79 3 12 10 18 17 14 7 -4 6 -1 -1 9 -7 8 -10 18 -6 21 3 4 1 7
-5 7 -7 0 -12 5 -12 11 0 5 5 7 12 3 6 -4 8 -3 4 4 -3 6 8 25 25 43 24 24 28
34 17 40 -11 7 -11 9 1 9 11 0 11 3 1 15 -7 8 -11 15 -9 16 75 10 89 10 89 -1
0 -7 -8 -9 -20 -5 -16 5 -19 3 -13 -12 6 -15 4 -16 -8 -6 -12 10 -15 8 -16
-10 -1 -12 1 -17 5 -11 7 11 23 11 61 -1 16 -5 21 -2 21 12 0 11 -6 25 -12 32
-8 9 -9 12 -1 7 7 -4 9 1 6 14 -3 11 -10 17 -15 14 -6 -4 -5 3 1 15 9 16 9 21
-1 21 -9 0 -9 3 2 10 10 7 11 10 3 11 -7 1 -19 2 -25 3 -7 1 -16 -3 -20 -9 -5
-6 -8 -4 -8 6 0 16 18 39 31 39 4 0 15 -7 24 -16z m-1065 -9 c7 -9 8 -15 2
-15 -5 0 -12 7 -16 15 -3 8 -4 15 -2 15 2 0 9 -7 16 -15z m2650 -23 c-1 -25
-2 -26 -15 -9 -7 11 -11 25 -8 33 8 22 23 6 23 -24z m-1650 4 c0 -11 -19 -15
-25 -6 -3 5 1 10 9 10 9 0 16 -2 16 -4z m-521 -16 c18 0 51 -40 57 -68 6 -31
6 -31 -32 -30 -22 1 -44 8 -51 17 -12 14 -14 14 -28 -3 -27 -35 -44 -28 -40
14 2 21 6 44 10 50 10 15 47 30 63 24 8 -2 17 -4 21 -4z m281 -76 c0 -3 -7 -1
-15 6 -8 7 -15 17 -15 22 0 5 7 3 15 -6 8 -8 15 -18 15 -22z m1785 -34 c-3 -5
-12 -10 -18 -10 -7 0 -6 4 3 10 19 12 23 12 15 0z m-2240 -20 c3 -5 1 -10 -4
-10 -6 0 -11 5 -11 10 0 6 2 10 4 10 3 0 8 -4 11 -10z m169 -46 c9 -3 16 -13
16 -21 0 -8 4 -11 10 -8 12 7 70 -72 70 -97 0 -10 -2 -18 -5 -18 -13 0 -55 33
-55 43 0 6 -8 19 -17 29 -9 10 -18 29 -20 41 -2 11 -9 25 -16 29 -14 9 -5 10
17 2z m-707 -89 c0 -8 -4 -15 -9 -15 -10 0 -11 14 -1 23 9 10 10 9 10 -8z
m1293 5 c-8 -5 -19 -10 -25 -10 -5 0 -3 5 5 10 8 5 20 10 25 10 6 0 3 -5 -5
-10z m-1152 -43 c17 -11 15 -27 -3 -27 -8 0 -15 4 -15 8 0 5 -10 8 -21 8 -12
-1 -24 4 -26 10 -4 13 44 13 65 1z m47 -47 c-3 -5 1 -10 9 -10 8 0 18 -4 21
-10 3 -6 -1 -7 -9 -4 -9 3 -16 2 -16 -3 0 -5 -13 -9 -30 -9 -22 0 -30 4 -30
17 0 18 13 27 43 28 10 1 15 -3 12 -9z m-183 -22 c-7 -7 -12 -8 -12 -2 0 14
12 26 19 19 2 -3 -1 -11 -7 -17z m255 -10 c-3 -8 -6 -5 -6 6 -1 11 2 17 5 13
3 -3 4 -12 1 -19z m1067 -3 c30 -13 36 -20 36 -46 l0 -30 -31 22 c-25 18 -35
20 -48 11 -9 -6 -36 -21 -60 -32 -24 -11 -42 -23 -38 -26 5 -6 -32 -54 -42
-54 -3 0 -5 25 -4 55 1 45 6 60 25 75 13 11 32 20 43 20 11 0 27 5 35 10 21
14 42 12 84 -5z m-1021 -18 c4 3 7 1 7 -6 0 -7 4 -9 10 -6 6 4 7 -1 3 -11 -4
-11 -8 -13 -11 -6 -2 7 -8 10 -13 6 -5 -3 -9 0 -9 5 0 6 -7 11 -16 11 -8 0
-12 5 -9 10 5 8 11 8 19 1 7 -6 16 -8 19 -4z m1276 -17 c21 -10 41 -27 45 -36
13 -34 -11 -34 -57 1 -69 53 -62 73 12 35z m-869 -41 c0 -5 -4 -9 -10 -9 -5 0
-10 7 -10 16 0 8 5 12 10 9 6 -3 10 -10 10 -16z m26 -28 c-3 -5 1 -11 9 -15
23 -8 114 -206 121 -262 l6 -49 -31 45 c-17 25 -31 49 -31 54 0 5 -8 18 -17
28 -9 10 -17 26 -18 36 -3 29 -17 66 -32 84 -12 13 -12 21 -3 39 11 19 10 21
-3 16 -17 -6 -41 15 -30 26 10 10 35 8 29 -2z m-256 -41 c0 -10 -28 -40 -39
-40 -27 0 -32 45 -7 62 11 8 46 -8 46 -22z m-41 -129 c-15 -5 -22 6 -14 19 6
9 10 9 16 -1 5 -8 4 -15 -2 -18z m-39 -48 c0 -7 4 -13 10 -13 6 0 8 -25 6 -60
-2 -37 2 -69 10 -85 7 -14 9 -23 4 -20 -6 4 -10 1 -10 -4 0 -6 -7 -11 -15 -11
-17 0 -20 -16 -5 -25 12 -8 13 -52 1 -59 -4 -3 -16 3 -25 13 -18 20 -18 51 -1
63 12 9 15 57 3 64 -4 3 -8 47 -8 97 1 83 2 90 15 73 8 -11 15 -26 15 -33z
m128 15 c18 -18 14 -38 -7 -38 -12 0 -20 9 -23 25 -6 27 10 33 30 13z m392
-118 c0 -5 -2 -10 -4 -10 -3 0 -8 5 -11 10 -3 6 -1 10 4 10 6 0 11 -4 11 -10z
m-3 -57 c-3 -10 -5 -4 -5 12 0 17 2 24 5 18 2 -7 2 -21 0 -30z m-97 12 c0 -8
-2 -15 -4 -15 -2 0 -6 7 -10 15 -3 8 -1 15 4 15 6 0 10 -7 10 -15z m50 -40 c0
-9 -6 -12 -16 -8 -13 5 -13 7 -2 14 17 11 18 11 18 -6z m49 -72 c0 -34 -1 -36
-11 -16 -6 12 -8 29 -5 37 11 27 17 18 16 -21z"/>
<path d="M12905 22280 c-3 -5 -1 -27 4 -49 5 -23 7 -41 4 -41 -3 0 0 -7 7 -15
20 -24 27 -18 24 23 -2 20 -3 47 -3 58 -1 23 -26 40 -36 24z"/>
<path d="M10152 22968 c-7 -7 -12 -20 -12 -30 0 -10 -4 -26 -9 -36 -26 -52
-64 -161 -60 -178 1 -5 1 -21 0 -37 -1 -27 -1 -27 -33 -14 -18 8 -39 13 -46
11 -7 -1 -8 0 -2 3 5 2 7 10 4 15 -4 6 -2 8 4 4 6 -3 13 -3 15 1 7 11 -21 48
-29 41 -18 -19 -46 -193 -47 -293 0 -153 32 -289 65 -269 6 4 6 0 0 -13 -7
-13 -7 -25 0 -38 25 -45 93 -117 134 -141 70 -41 153 -54 124 -19 -8 9 -6 17
5 29 9 9 13 20 10 26 -9 14 43 63 58 54 6 -4 4 2 -6 13 -10 11 -31 20 -47 21
-17 0 -40 4 -53 8 -30 9 -107 72 -107 88 0 8 -6 19 -13 25 -15 11 -17 48 -4
68 4 7 0 16 -10 22 -15 9 -13 10 12 7 17 -2 29 -9 28 -15 -2 -6 3 -11 10 -11
16 -1 57 -35 57 -49 0 -6 5 -11 10 -11 6 0 21 -10 34 -22 30 -30 71 -51 88
-46 7 3 24 1 36 -4 18 -6 23 -5 19 4 -2 7 -8 12 -13 12 -5 -1 -22 12 -39 28
-16 17 -24 27 -16 23 8 -5 7 2 -5 20 l-18 28 24 -14 c14 -8 27 -17 30 -20 3
-3 19 -10 36 -16 22 -8 35 -7 48 2 17 13 17 14 0 23 -17 9 -17 11 -1 35 9 14
13 29 8 32 -5 3 -12 1 -16 -5 -3 -5 -11 -10 -17 -10 -6 0 -5 7 3 17 10 11 10
14 2 9 -7 -4 -13 -3 -13 3 0 5 6 12 13 15 6 3 0 4 -15 1 -17 -3 -28 -1 -28 5
0 6 5 8 10 5 6 -3 10 -1 10 5 0 6 4 9 9 5 17 -10 3 32 -16 53 -10 10 -24 27
-31 38 -7 10 -10 14 -7 7 3 -6 2 -14 -3 -17 -4 -2 -8 7 -9 22 0 15 -4 54 -7
87 -4 33 -7 74 -8 90 0 17 -9 42 -20 57 -11 16 -17 31 -15 36 3 4 -1 15 -8 25
-11 15 -14 11 -24 -35 -6 -29 -13 -68 -16 -87 -7 -45 -21 -68 -45 -76 -11 -3
-20 -9 -21 -13 -5 -53 -19 -79 -19 -38 0 15 -4 25 -9 22 -13 -8 -20 39 -19
139 0 96 7 148 30 233 9 28 14 52 14 52 -1 0 -7 -5 -14 -12z m59 -575 c8 -9 9
-14 2 -10 -6 4 -13 1 -16 -5 -3 -7 -4 -3 -4 10 1 26 1 26 18 5z m59 -59 c0 -8
-19 -13 -24 -6 -3 5 1 9 9 9 8 0 15 -2 15 -3z m-170 -18 c0 -2 -7 -7 -16 -10
-8 -3 -12 -2 -9 4 6 10 25 14 25 6z m310 -20 c-7 -7 -13 -7 -20 0 -6 6 -3 10
10 10 13 0 16 -4 10 -10z"/>
<path d="M11990 22860 c-9 -6 -10 -10 -3 -10 6 0 15 5 18 10 8 12 4 12 -15 0z"/>
<path d="M10013 22833 c-3 -10 -7 -21 -9 -24 -2 -3 3 -6 11 -6 8 0 12 4 9 9
-3 4 0 8 5 8 6 0 11 7 11 15 0 21 -19 19 -27 -2z"/>
<path d="M12220 22828 c0 -5 -4 -6 -10 -3 -5 3 -10 4 -10 1 0 -3 10 -10 21
-17 13 -6 19 -7 15 -1 -3 6 2 12 11 14 15 3 14 5 -4 10 -13 3 -23 2 -23 -4z"/>
<path d="M13430 22830 c0 -5 5 -10 11 -10 5 0 7 5 4 10 -3 6 -8 10 -11 10 -2
0 -4 -4 -4 -10z"/>
<path d="M12398 22803 c7 -3 16 -2 19 1 4 3 -2 6 -13 5 -11 0 -14 -3 -6 -6z"/>
<path d="M14805 22671 c-7 -23 2 -61 15 -61 7 0 3 70 -5 78 -2 2 -6 -6 -10
-17z"/>
<path d="M14580 22655 c-5 -14 -14 -25 -20 -25 -6 0 -6 -9 0 -26 6 -14 7 -36
4 -49 -16 -64 142 -59 177 6 15 28 5 34 -30 19 -24 -10 -36 -9 -61 1 -30 14
-39 32 -20 44 13 8 4 28 -20 43 -18 11 -21 9 -30 -13z"/>
<path d="M10160 22650 c0 -11 2 -20 4 -20 2 0 6 9 9 20 3 11 1 20 -4 20 -5 0
-9 -9 -9 -20z"/>
<path d="M10756 22642 c-16 -16 -3 -32 25 -32 17 0 39 -5 50 -10 20 -11 24 -4
10 18 -9 14 -76 33 -85 24z"/>
<path d="M10590 22566 c0 -107 95 -205 185 -190 22 3 47 12 55 20 12 12 8 14
-34 14 -26 0 -63 7 -82 16 -38 18 -89 90 -105 146 -13 50 -19 48 -19 -6z"/>
<path d="M10825 22559 c-11 -4 -33 -10 -48 -14 -15 -3 -25 -10 -22 -15 9 -15
71 -12 85 5 17 20 9 34 -15 24z"/>
<path d="M13280 22551 c0 -6 5 -13 10 -16 6 -3 10 -1 10 5 0 7 7 10 15 6 8 -3
15 -1 15 4 0 6 -11 10 -25 10 -14 0 -25 -4 -25 -9z"/>
<path d="M13571 22532 c0 -11 2 -12 6 -4 3 8 9 10 16 4 7 -5 21 -6 32 -1 14 5
15 8 5 9 -8 1 -25 3 -37 6 -17 3 -23 -1 -22 -14z"/>
<path d="M15208 22505 c-4 -11 -10 -36 -14 -55 -11 -57 -120 -205 -175 -237
-30 -18 -39 -33 -16 -29 72 12 197 156 197 226 0 20 5 41 11 47 6 6 9 23 7 39
-3 25 -4 26 -10 9z"/>
<path d="M13986 22418 c3 -4 9 -8 15 -8 5 0 9 4 9 8 0 5 -7 9 -15 9 -8 0 -12
-4 -9 -9z"/>
<path d="M14726 22252 c-3 -5 1 -9 9 -9 8 0 12 4 9 9 -3 4 -7 8 -9 8 -2 0 -6
-4 -9 -8z"/>
<path d="M14700 22219 c0 -5 5 -7 10 -4 6 3 10 8 10 11 0 2 -4 4 -10 4 -5 0
-10 -5 -10 -11z"/>
<path d="M14500 22202 c0 -24 25 -41 40 -26 5 5 2 17 -6 28 -10 14 -14 16 -14
5 0 -12 -2 -12 -10 1 -8 12 -10 11 -10 -8z"/>
<path d="M14775 22139 c-6 -9 38 -30 59 -28 46 6 49 2 41 -58 -13 -90 -14
-129 -4 -144 7 -12 9 -12 10 1 0 8 5 4 9 -10 8 -25 8 -25 9 -2 1 13 5 21 10
18 4 -3 9 28 10 70 3 113 16 138 74 136 17 0 42 5 56 13 24 13 22 14 -36 10
-34 -2 -66 -5 -70 -8 -9 -4 -66 -1 -125 7 -21 3 -40 1 -43 -5z"/>
<path d="M14277 22124 c-11 -11 -8 -36 3 -29 6 4 8 12 4 18 -3 7 1 4 9 -6 13
-15 16 -15 27 -2 7 9 8 15 2 15 -6 0 -17 2 -24 5 -8 3 -17 2 -21 -1z"/>
<path d="M14477 22026 c-4 -10 -1 -13 9 -9 15 6 19 23 5 23 -5 0 -11 -7 -14
-14z"/>
<path d="M12255 22010 c-8 -13 -1 -24 14 -19 6 3 7 10 2 18 -6 10 -10 10 -16
1z"/>
<path d="M10353 21990 c-1 -11 2 -20 8 -20 5 0 9 9 9 20 0 11 -4 20 -8 20 -4
0 -8 -9 -9 -20z"/>
<path d="M12744 21916 c-36 -79 -41 -101 -24 -111 13 -8 45 30 60 70 7 17 18
44 25 61 7 17 10 35 7 40 -18 25 -36 9 -68 -60z"/>
<path d="M14536 21975 c-4 -13 -2 -14 14 -5 23 13 26 20 6 20 -8 0 -16 -7 -20
-15z"/>
<path d="M14505 21968 c-4 -10 -13 -18 -21 -18 -14 0 -37 -34 -28 -42 9 -9 66
51 61 64 -3 9 -7 8 -12 -4z"/>
<path d="M12886 21911 c5 -22 0 -38 -18 -63 -14 -18 -32 -48 -41 -65 -13 -29
-14 -33 -1 -33 9 0 13 4 10 9 -3 5 1 14 9 21 8 7 15 19 15 26 0 8 4 13 9 12 5
-2 17 6 27 17 33 35 59 29 85 -20 28 -52 39 -57 39 -15 0 22 -12 42 -49 79
-27 27 -58 52 -70 56 -19 6 -20 3 -15 -24z"/>
<path d="M10426 21922 c-3 -3 -6 -9 -6 -14 0 -12 40 -6 43 6 2 10 -29 17 -37
8z"/>
<path d="M14533 21894 c9 -10 -12 -44 -26 -44 -7 0 -23 9 -35 21 -20 18 -24
18 -37 5 -21 -21 -58 -31 -63 -17 -2 6 -15 11 -28 11 -17 0 -50 -25 -109 -83
-47 -46 -85 -89 -85 -95 0 -29 22 -16 65 39 42 53 51 60 74 55 56 -14 66 -12
78 16 13 30 46 37 81 19 9 -5 25 -12 36 -15 13 -4 16 -11 11 -24 -4 -9 -9 -30
-11 -45 -2 -16 -6 -33 -9 -38 -9 -14 -43 -11 -52 5 -10 17 -53 39 -61 32 -3
-3 0 -6 6 -6 16 0 15 -21 -2 -56 -8 -16 -18 -42 -22 -59 -7 -30 -7 -30 14 -12
38 34 48 10 23 -51 -18 -43 -7 -52 21 -16 13 15 35 41 51 57 58 59 76 98 75
164 0 37 6 75 16 94 16 32 14 49 -6 49 -6 0 -8 -3 -5 -6z"/>
<path d="M10314 21879 c-3 -6 -1 -16 5 -22 8 -8 11 -5 11 11 0 24 -5 28 -16
11z"/>
<path d="M12532 21870 c-17 -27 -15 -40 6 -40 15 -1 15 -2 2 -13 -21 -17 -23
-42 -5 -57 17 -14 17 -14 20 17 1 12 -2 20 -6 17 -5 -3 -9 0 -9 5 0 6 7 11 15
11 14 0 20 -12 16 -34 -1 -4 2 -13 7 -20 5 -6 8 -41 7 -78 -3 -62 16 -195 30
-218 4 -6 10 -8 15 -5 6 4 5 13 -2 24 -7 12 -8 32 -1 67 10 49 10 49 21 21 7
-16 12 -44 12 -63 0 -20 5 -45 11 -56 17 -31 19 -132 8 -286 -16 -223 -17
-252 -8 -258 5 -3 9 23 9 58 1 35 7 93 14 130 7 37 14 95 15 129 2 61 13 97
35 111 7 5 3 8 -9 8 -19 1 -18 2 2 10 28 11 39 51 23 80 -10 18 -9 29 6 56 16
29 17 40 7 89 -13 61 -10 79 20 112 11 13 17 26 14 30 -10 10 -47 11 -41 1 3
-4 0 -8 -5 -8 -6 0 -11 5 -11 11 0 8 -4 8 -12 1 -17 -13 -56 2 -65 25 -6 15
-7 15 -14 -3 -4 -10 -8 -37 -8 -59 -1 -39 -20 -89 -21 -55 -5 121 -13 178 -31
202 -10 15 -19 32 -19 38 0 6 -4 8 -10 5 -5 -3 -10 -1 -10 4 0 17 -14 13 -28
-9z"/>
<path d="M14870 21881 c0 -7 -4 -9 -10 -6 -6 4 -7 -1 -3 -11 6 -15 7 -15 15 1
6 9 7 19 4 22 -3 4 -6 1 -6 -6z"/>
<path d="M13890 21840 c-15 -27 -13 -32 12 -28 27 4 36 33 14 41 -10 4 -20 -1
-26 -13z"/>
<path d="M14576 21736 c-8 -14 -18 -43 -22 -65 -8 -52 16 -66 52 -30 21 22 23
31 18 72 -7 52 -23 60 -48 23z"/>
<path d="M12914 21705 c-18 -44 -18 -45 4 -45 28 0 55 35 47 59 -10 32 -34 25
-51 -14z"/>
<path d="M13190 21643 c0 -38 14 -57 35 -50 12 5 14 13 9 29 -15 51 -44 64
-44 21z"/>
<path d="M14192 21663 c-6 -2 -9 -10 -6 -16 5 -8 2 -8 -6 0 -11 10 -18 6 -35
-25 -14 -26 -28 -38 -47 -40 -34 -4 -40 -22 -32 -94 5 -42 12 -61 25 -69 11
-5 18 -19 16 -32 -1 -17 4 -23 23 -25 31 -4 50 -27 43 -52 -7 -28 5 -25 36 8
l26 27 3 -33 c2 -19 -3 -38 -12 -48 -28 -27 -41 -123 -18 -131 8 -3 12 6 12
25 0 57 12 92 31 92 19 0 26 16 31 72 2 35 -5 53 -21 53 -16 0 -38 31 -34 50
4 20 4 20 -11 1 -28 -35 -41 -5 -41 92 0 64 5 96 18 120 10 17 16 32 15 31 -2
0 -9 -3 -16 -6z m-59 -198 c-7 -19 -33 -20 -33 -1 0 15 20 26 32 19 4 -2 5
-10 1 -18z"/>
<path d="M14680 21641 c0 -5 7 -14 15 -21 8 -7 15 -19 15 -26 0 -8 7 -14 15
-14 22 0 18 29 -7 51 -25 20 -38 24 -38 10z"/>
<path d="M13734 21573 c-3 -16 -10 -40 -16 -56 -7 -19 -7 -31 1 -40 6 -8 9
-16 7 -18 -2 -2 -6 -17 -10 -34 -6 -24 -5 -27 5 -18 6 7 13 34 15 60 2 26 6
67 9 91 7 47 -1 58 -11 15z"/>
<path d="M14330 21569 c0 -5 5 -7 10 -4 6 3 10 8 10 11 0 2 -4 4 -10 4 -5 0
-10 -5 -10 -11z"/>
<path d="M12948 21551 c-8 -10 -41 -32 -72 -50 -31 -18 -56 -39 -56 -47 0 -23
20 -16 61 21 36 33 79 47 79 26 0 -20 96 -36 122 -20 10 6 5 16 -20 39 -29 26
-48 33 -78 29 -4 0 -10 4 -13 10 -5 7 -13 4 -23 -8z"/>
<path d="M14310 21550 c0 -5 5 -10 11 -10 5 0 7 5 4 10 -3 6 -8 10 -11 10 -2
0 -4 -4 -4 -10z"/>
<path d="M14615 21535 c-70 -58 -93 -89 -75 -100 6 -3 13 1 16 9 8 20 60 21
67 2 3 -7 20 -16 38 -20 31 -6 32 -7 13 -22 -10 -8 -12 -12 -4 -8 12 5 12 4 3
-6 -14 -15 -6 -40 12 -40 27 0 38 28 27 72 -9 35 -8 46 5 60 14 16 13 20 -18
48 -40 36 -45 36 -84 5z"/>
<path d="M13929 21483 c-24 -27 -52 -58 -62 -70 -17 -22 -17 -22 15 -13 39 12
42 9 43 -38 l0 -38 36 18 c20 9 39 25 43 33 10 26 7 85 -4 85 -5 0 -10 -7 -10
-16 0 -14 -3 -14 -15 -4 -11 9 -12 16 -5 25 8 9 11 65 4 65 0 0 -21 -21 -45
-47z"/>
<path d="M14337 21479 c-5 -17 -3 -18 11 -7 9 7 18 13 20 14 2 1 -4 4 -12 7
-8 3 -16 -2 -19 -14z"/>
<path d="M13100 21451 c0 -5 5 -13 10 -16 6 -3 10 -2 10 4 0 5 -4 13 -10 16
-5 3 -10 2 -10 -4z"/>
<path d="M14255 21452 c-9 -6 -19 -32 -12 -32 1 0 10 9 20 20 16 20 12 27 -8
12z"/>
<path d="M14404 21445 c-17 -13 -16 -14 14 -4 33 11 41 19 19 19 -7 0 -22 -7
-33 -15z"/>
<path d="M14251 21411 c-8 -5 -9 -11 -3 -15 5 -3 12 1 16 9 6 17 6 18 -13 6z"/>
<path d="M12906 21395 c-3 -8 -1 -15 4 -15 13 0 22 18 11 24 -5 3 -11 -1 -15
-9z"/>
<path d="M13257 21383 c-3 -16 -8 -39 -11 -53 -6 -24 -6 -25 5 -3 7 13 20 25
30 28 20 7 23 14 13 39 -10 25 -31 19 -37 -11z"/>
<path d="M14560 21380 c0 -6 21 -33 46 -60 44 -47 76 -62 89 -41 10 17 -16 57
-38 58 -12 1 -32 14 -44 28 -22 25 -53 34 -53 15z"/>
<path d="M13358 21363 c-20 -21 -14 -59 21 -133 11 -25 21 -53 21 -62 0 -10 5
-18 10 -18 6 0 10 6 10 13 0 11 -36 185 -43 210 -1 5 -10 0 -19 -10z"/>
<path d="M13794 21345 c-24 -16 -60 -100 -68 -157 -7 -57 1 -46 24 31 11 37
31 85 45 105 28 41 28 42 -1 21z"/>
<path d="M12077 21297 c-3 -8 0 -14 7 -14 7 0 13 6 13 14 0 7 -4 13 -8 13 -4
0 -9 -6 -12 -13z"/>
<path d="M12838 21266 c-16 -24 -28 -47 -28 -51 0 -14 39 26 60 61 30 52 0 42
-32 -10z"/>
<path d="M12435 21235 c2 -33 13 -100 24 -150 12 -49 21 -109 21 -132 0 -24 5
-43 10 -43 23 0 3 246 -22 261 -5 4 -12 24 -15 45 -9 69 -23 84 -18 19z"/>
<path d="M13194 21276 c-15 -12 -17 -18 -8 -33 17 -28 44 -29 44 -1 0 38 -13
50 -36 34z"/>
<path d="M14036 21228 c-17 -38 -30 -86 -33 -123 -5 -64 9 -60 21 6 3 20 17
45 31 57 25 22 28 42 16 95 -6 26 -8 24 -35 -35z"/>
<path d="M13125 21261 c-13 -21 -12 -80 1 -133 9 -34 14 -90 12 -137 -2 -44 1
-76 5 -72 7 7 9 124 5 304 -1 44 -10 59 -23 38z"/>
<path d="M13932 21205 c0 -16 2 -22 5 -12 2 9 2 23 0 30 -3 6 -5 -1 -5 -18z"/>
<path d="M14287 21223 c-9 -8 -9 -56 -1 -78 5 -13 8 -14 15 -3 17 26 4 100
-14 81z"/>
<path d="M14130 21070 c0 -5 5 -10 10 -10 6 0 10 5 10 10 0 6 -4 10 -10 10 -5
0 -10 -4 -10 -10z"/>
<path d="M12233 21003 c17 -33 91 -103 108 -103 18 0 -57 94 -91 114 l-32 19
15 -30z"/>
<path d="M12748 21024 c-5 -4 -8 -26 -7 -48 0 -37 1 -39 10 -16 11 27 8 76 -3
64z"/>
<path d="M12608 20954 c-5 -4 -8 -32 -8 -63 0 -39 3 -52 11 -44 5 5 9 34 7 62
-2 29 -6 49 -10 45z"/>
<path d="M11882 20915 l-22 -25 25 0 c20 0 25 5 25 25 0 14 -1 25 -3 25 -2 0
-13 -11 -25 -25z"/>
<path d="M12065 20811 c-3 -5 -1 -12 5 -16 5 -3 10 1 10 9 0 18 -6 21 -15 7z"/>
<path d="M12200 20802 c0 -15 30 -23 48 -12 16 9 16 9 0 10 -9 0 -23 3 -32 6
-9 3 -16 2 -16 -4z"/>
<path d="M11830 20763 c0 -7 7 -13 15 -13 8 0 15 6 15 13 0 8 -7 14 -15 14 -8
0 -15 -6 -15 -14z"/>
<path d="M11910 20770 c0 -5 5 -10 10 -10 6 0 10 5 10 10 0 6 -4 10 -10 10 -5
0 -10 -4 -10 -10z"/>
<path d="M12380 20670 c0 -5 7 -10 16 -10 8 0 12 5 9 10 -3 6 -10 10 -16 10
-5 0 -9 -4 -9 -10z"/>
<path d="M12138 20583 c-4 -15 -13 -19 -37 -17 -17 1 -33 -2 -36 -6 -3 -4 -14
-6 -26 -3 -11 3 -31 0 -44 -7 -13 -7 -31 -10 -40 -6 -9 3 -13 2 -10 -4 3 -5
-4 -8 -15 -7 -11 1 -20 4 -20 8 0 4 -11 7 -25 7 -15 0 -22 -5 -18 -12 4 -6 -6
-1 -21 12 -29 22 -52 30 -42 13 3 -5 -4 -9 -17 -9 -30 -2 -50 -6 -64 -15 -6
-4 -15 -2 -19 4 -5 8 -13 4 -26 -12 -11 -15 -16 -18 -12 -6 7 19 -11 24 -22 6
-4 -8 -9 -7 -15 2 -8 12 -12 11 -23 -3 -7 -10 -16 -15 -20 -11 -9 9 -36 13
-36 5 0 -4 -54 -7 -120 -8 -80 0 -129 -5 -145 -14 -20 -10 -28 -11 -37 -2 -17
17 -32 15 -57 -7 l-22 -19 23 -22 c21 -19 21 -20 3 -14 -18 7 -19 6 -6 -10 8
-9 21 -14 30 -11 13 5 14 4 3 -7 -10 -10 -16 -10 -32 0 -17 10 -20 10 -20 -4
0 -10 -6 -14 -14 -11 -8 3 -17 0 -19 -7 -3 -7 -27 -21 -54 -31 -86 -32 -180
-95 -142 -95 8 0 25 6 39 13 57 29 222 69 235 56 12 -12 28 -12 20 1 -4 6 1 7
11 3 11 -4 15 -3 10 5 -4 6 1 11 11 11 10 0 35 3 56 5 27 4 37 2 34 -7 -2 -7
-25 -13 -51 -15 -25 -2 -44 -6 -42 -11 3 -4 -7 -7 -22 -6 -32 1 -63 -15 -55
-29 3 -5 1 -6 -5 -2 -7 4 -23 -4 -37 -18 -14 -15 -31 -26 -36 -26 -6 0 -22 -9
-35 -19 -22 -17 -23 -20 -7 -25 23 -6 97 -4 103 3 9 11 50 31 62 31 6 0 3 -7
-8 -15 -14 -11 -15 -14 -2 -9 21 7 45 -33 29 -49 -6 -6 -11 -28 -11 -49 0 -42
-4 -45 -26 -23 -23 23 -42 18 -48 -12 -3 -16 -5 -1821 -5 -4013 0 -2192 0
-5791 -1 -7998 0 -2208 2 -4018 5 -4022 9 -14 103 38 110 61 4 11 9 415 11
897 3 482 5 884 5 892 0 20 0 122 -2 455 0 154 -2 609 -4 1010 -2 402 -5 754
-8 784 -5 47 -3 54 14 58 23 6 25 30 4 54 -19 20 -24 125 -8 154 6 10 8 28 3
39 -4 12 -6 309 -5 661 2 352 -1 663 -4 692 -4 29 -5 56 -2 59 3 3 7 153 8
332 0 180 2 354 3 387 0 33 -1 123 -4 200 -3 77 -6 147 -6 155 0 8 2 220 6
470 3 250 6 473 5 495 -3 148 -2 909 2 995 3 58 10 117 16 132 9 23 7 29 -9
38 -18 10 -18 39 -14 1117 4 924 4 1549 1 2083 -1 209 6 779 10 818 l5 42 49
0 c42 0 49 -3 54 -22 3 -13 3 -1742 0 -3843 -2 -2101 -4 -3833 -3 -3850 2 -39
2 -1025 0 -1130 -1 -44 0 -989 2 -2100 3 -1998 4 -2066 35 -2147 21 -57 84
-57 97 0 3 15 10 37 15 50 9 23 12 179 5 287 -8 115 -10 374 -3 381 3 4 2 15
-3 25 -6 10 -6 20 -1 23 5 3 7 36 4 73 -2 38 -5 127 -6 198 -2 72 -6 135 -9
140 -4 6 -3 17 3 25 7 12 9 11 9 -5 0 -16 2 -17 9 -6 11 17 6 91 -8 138 -6 21
-6 35 0 39 6 3 6 11 2 17 -7 10 -9 59 -4 110 1 5 6 5 11 2 10 -6 10 0 -4 62
-4 20 -7 102 -5 158 0 11 0 81 -1 155 0 74 0 155 1 180 1 25 0 72 -1 105 -1
33 1 87 5 120 7 64 11 109 13 138 2 14 7 17 22 12 11 -3 24 -4 29 -1 13 9 -11
55 -25 49 -8 -3 -14 14 -18 51 -3 31 -9 82 -13 114 -4 31 -7 62 -8 69 0 6 -3
15 -7 18 -4 4 -3 17 2 30 5 14 5 26 -2 33 -8 8 -8 15 0 25 7 8 9 16 6 19 -8 9
-12 266 -4 309 4 22 4 42 -1 44 -4 3 -6 15 -4 28 4 21 6 126 5 192 -2 57 5
143 12 150 3 4 18 -1 32 -10 23 -15 26 -16 26 -2 0 23 -22 67 -33 67 -6 0 -3
8 6 18 22 25 21 35 -2 27 -28 -9 -34 8 -34 107 0 64 4 93 14 98 17 11 13 85
-7 116 -9 13 -13 28 -10 33 4 5 2 13 -4 16 -6 4 -8 16 -4 27 3 11 8 28 9 37 2
9 4 17 5 19 2 1 3 8 4 14 0 7 17 20 36 29 46 22 44 41 -5 55 l-39 11 -1 216
c0 119 -2 217 -5 217 -3 0 -4 17 -3 37 1 21 2 38 3 38 6 0 7 36 1 40 -5 2 -6
37 -4 77 2 40 4 83 4 96 -1 16 3 21 12 16 9 -6 9 -4 -1 8 -8 10 -12 43 -12 84
1 38 0 105 -1 149 -1 44 -1 89 0 100 1 11 0 118 -3 238 -2 121 0 217 5 217 5
0 5 10 1 22 -5 13 -7 104 -5 203 2 154 2 252 0 410 0 17 2 45 6 63 3 17 2 32
-2 32 -3 0 -4 30 0 68 3 37 4 78 2 92 -8 45 -8 230 -1 232 10 4 11 39 4 98 -7
57 -9 97 -7 134 1 28 1 28 26 12 23 -15 25 -15 25 0 0 9 -9 18 -20 21 -11 3
-21 10 -22 17 -3 20 -12 700 -10 796 0 19 0 206 -2 415 -1 209 1 385 4 390 3
6 5 75 5 154 0 133 1 145 20 155 42 23 50 62 11 52 -14 -3 -28 -1 -32 5 -8 14
-8 145 1 158 3 5 1 12 -4 15 -9 6 -4 88 6 116 4 8 5 20 3 25 -2 6 -4 48 -6 95
-2 47 -5 107 -7 134 -3 34 3 66 19 105 21 51 22 57 6 62 -9 4 -20 5 -24 3 -4
-3 -3 10 2 27 5 18 7 71 3 118 -7 95 -7 124 -5 191 1 25 1 325 -1 667 l-3 623
24 21 c22 19 23 22 8 31 -9 5 -14 13 -11 19 3 5 -1 23 -9 41 -9 23 -13 55 -10
103 6 102 6 100 4 225 -1 63 -2 158 -2 210 0 52 0 119 -1 148 -1 30 1 56 4 58
5 3 4 39 -1 54 -1 3 -2 79 -1 170 0 91 0 307 0 480 0 308 1 429 5 480 1 14 -2
31 -7 38 -6 8 -5 12 2 12 8 0 9 5 3 16 -5 8 -6 35 -2 59 4 24 4 49 0 55 -4 6
-5 55 -3 108 3 53 6 450 8 882 4 825 11 990 46 982 9 -2 7 4 -5 17 -10 11 -21
36 -26 56 -7 31 -5 39 18 62 24 24 25 26 7 39 -17 12 -17 14 -1 20 16 6 16 7
0 19 -14 9 -14 14 -4 20 9 6 11 4 5 -5 -5 -8 -4 -11 2 -7 10 6 21 44 30 99 4
30 -14 48 -28 27 -8 -12 -11 -12 -19 1 -6 10 -6 16 1 18 6 3 6 9 -2 18 -6 8
-8 14 -3 14 5 0 3 4 -4 9 -11 7 -11 9 1 14 11 4 15 1 12 -12 -2 -10 6 -23 18
-31 20 -12 21 -11 9 2 -10 13 -10 17 1 21 8 3 17 17 19 31 3 14 1 23 -3 20 -5
-3 -9 -1 -9 4 0 12 49 22 55 12 3 -5 14 -37 25 -73 14 -45 28 -70 46 -82 14
-9 23 -22 21 -28 -2 -7 6 -30 17 -52 25 -48 22 107 26 -1450 2 -979 0 -1205
-11 -1228 -10 -22 -10 -30 -1 -36 11 -7 15 -233 10 -661 -1 -51 1 -2176 2
-2315 0 -122 0 -937 -1 -1055 -1 -134 -1 -1973 1 -2970 2 -1261 1 -1699 -4
-1765 -2 -33 1 -80 6 -104 11 -42 10 -45 -17 -68 -25 -22 -26 -25 -11 -42 19
-21 26 -70 30 -206 2 -72 -1 -104 -11 -113 -9 -9 -11 -30 -8 -70 11 -110 12
-212 4 -206 -5 3 -9 10 -9 16 0 5 -13 27 -30 48 -16 21 -30 45 -30 53 0 8 -22
34 -50 57 -56 47 -69 86 -25 78 40 -8 40 10 -2 48 l-38 35 -3 -40 c-2 -23 -7
-41 -13 -41 -18 0 -9 -18 35 -71 25 -30 53 -77 64 -104 14 -37 28 -54 52 -66
18 -8 37 -24 43 -35 12 -21 17 -188 16 -559 0 -132 0 -591 1 -1020 1 -429 1
-816 1 -860 0 -44 -1 -331 -3 -638 -3 -522 -2 -558 14 -563 27 -8 71 18 88 51
11 24 14 84 15 310 0 154 3 285 7 291 4 5 3 36 -1 67 -4 33 -4 60 1 63 5 3 5
11 1 17 -5 7 -7 194 -6 417 2 223 2 425 1 450 0 25 -1 256 -2 514 -1 408 1
470 14 476 64 30 69 40 23 52 -18 5 -34 12 -34 16 -4 22 -7 880 -3 894 3 9 13
19 22 21 16 4 16 5 0 6 -21 1 -20 -5 -23 96 -3 96 0 105 31 105 19 0 34 -15
70 -71 30 -46 72 -91 120 -131 41 -33 74 -64 74 -69 0 -4 11 -21 26 -38 20
-24 24 -37 19 -64 -4 -19 -8 -221 -9 -448 -1 -384 -3 -418 -21 -467 -20 -54
-20 -54 0 -68 22 -16 20 53 23 -1189 1 -451 -6 -1213 -11 -1221 -3 -5 -8 -28
-12 -52 l-6 -42 33 0 c55 0 71 28 79 145 3 55 7 597 7 1203 1 1035 2 1105 18
1123 13 14 15 22 7 30 -6 6 -9 18 -6 25 3 8 0 36 -7 62 -9 36 -12 506 -10
2062 1 1108 2 2029 2 2045 0 17 0 392 0 835 0 443 0 816 0 830 0 65 -3 3052
-3 3715 0 413 -1 1059 -2 1438 l-2 687 23 0 c32 0 39 27 12 55 -12 12 -25 38
-29 57 -4 18 -6 444 -4 945 3 648 1 925 -7 954 -22 81 -71 104 -162 77 -78
-23 -75 -73 14 -179 l62 -73 3 -665 c2 -366 3 -742 4 -836 3 -474 -4 -1244
-12 -1256 -4 -7 -4 -18 1 -24 5 -6 9 -69 10 -140 1 -127 2 -565 1 -595 0 -8 0
-69 -1 -135 0 -66 -1 -187 -2 -270 0 -82 -1 -206 0 -275 2 -682 -1 -902 -11
-917 -4 -6 -3 -23 3 -37 6 -16 9 -237 9 -574 0 -301 0 -650 0 -777 1 -816 -2
-1101 -13 -1114 -6 -8 -9 -17 -7 -20 2 -3 -5 -11 -17 -16 -19 -10 -19 -11 9
-27 l29 -17 1 -398 c2 -450 2 -412 -5 -713 -3 -124 -5 -253 -5 -287 -1 -56 -3
-63 -21 -63 -25 0 -25 -5 -1 -32 13 -13 21 -41 25 -82 8 -89 2 -1343 -6 -1352
-4 -3 -18 -7 -30 -8 -35 -2 -29 -30 8 -36 l30 -5 -2 -640 c-2 -352 -3 -647 -3
-655 1 -8 2 -103 3 -210 1 -107 5 -205 10 -217 6 -19 4 -22 -11 -16 -26 9
-112 71 -156 112 -22 20 -56 72 -79 119 -35 71 -42 80 -53 66 -6 -9 -17 -15
-24 -13 -9 3 -12 46 -12 164 0 88 0 203 -1 255 0 52 -1 664 -1 1360 l-2 1265
38 -1 c30 -1 37 2 35 15 -2 10 -15 17 -35 19 -22 2 -33 9 -36 25 -3 12 -4 366
-2 787 2 421 3 770 3 775 -6 302 -4 572 4 582 7 9 17 7 39 -9 16 -12 31 -19
35 -16 13 14 -10 50 -47 74 l-40 25 6 532 c2 293 5 543 4 557 -7 458 -9 609
-4 628 3 13 20 30 39 39 26 12 35 24 39 47 7 44 -6 51 -41 21 -17 -14 -32 -22
-35 -18 -7 14 -2 1601 6 1609 4 4 23 3 42 -3 19 -6 37 -7 40 -3 6 10 -38 46
-65 55 -28 9 -30 40 -28 320 l3 250 34 16 c33 15 34 17 13 23 -12 4 -28 17
-35 29 -9 17 -12 310 -12 1367 0 753 4 1372 9 1407 8 57 7 64 -15 92 -13 16
-32 41 -41 54 -12 18 -29 26 -58 29 -22 2 -40 1 -40 -2 0 -3 -8 -6 -19 -6 -16
0 -17 4 -9 28 6 15 14 25 19 22 5 -3 9 0 9 6 0 6 5 8 10 5 6 -3 10 1 10 9 0
15 35 30 56 25 5 -1 20 2 34 8 14 5 97 16 185 23 88 7 192 16 230 20 89 9 192
5 228 -9 26 -10 29 -9 34 10 5 17 10 19 32 13 14 -4 40 -7 56 -6 146 11 650 4
708 -10 21 -5 93 -12 160 -15 159 -7 220 -10 347 -18 82 -5 101 -3 86 6 -21
13 -161 35 -316 50 -58 5 -112 11 -120 14 -8 2 -80 7 -160 10 -80 4 -158 9
-175 12 -16 3 -140 6 -275 9 -135 2 -275 6 -313 10 -71 6 -102 23 -45 25 18 0
47 3 63 5 59 9 513 10 675 2 91 -5 217 -16 280 -24 63 -9 138 -17 165 -18 148
-8 171 -10 183 -19 7 -6 43 -12 79 -13 65 -3 65 -3 47 17 -9 11 -22 18 -28 16
-6 -3 -19 0 -30 5 -19 10 -45 16 -106 22 -19 2 -42 6 -50 8 -65 23 -148 35
-299 44 -30 1 -70 5 -90 9 -20 3 -65 8 -101 10 -36 3 -83 11 -105 19 -29 10
-42 11 -47 3 -5 -8 -73 -11 -240 -8 -386 7 -386 7 -398 23 -3 3 -17 9 -31 13
-19 5 -28 2 -33 -10 -4 -10 -2 -14 5 -9 7 4 10 1 7 -7 -5 -14 -27 -14 -58 -2
-22 9 -41 9 -72 2 -14 -4 -29 -4 -33 -1 -9 9 -36 11 -30 2 3 -4 -2 -10 -10
-14 -8 -3 -15 -2 -15 3 0 5 -6 9 -12 8 -32 -1 -49 4 -43 12 7 12 -2 18 -46 26
-30 6 -37 4 -41 -12z m316 -119 c23 -9 21 -37 -3 -29 -24 7 -137 9 -149 1 -6
-3 -12 1 -15 8 -5 12 6 15 50 15 30 0 57 2 61 5 7 8 36 8 56 0z m-197 -28 c1
-1 -13 -2 -32 -2 -35 0 -47 10 -22 19 9 3 39 -6 54 -17z m-787 -79 c0 -7 -4
-6 -10 3 -8 12 -10 12 -10 1 0 -8 -3 -12 -6 -8 -9 9 6 28 17 22 5 -4 9 -12 9
-18z m-186 -196 c3 -5 -1 -11 -9 -14 -9 -4 -12 -1 -8 9 6 16 10 17 17 5z m6
-135 c0 -3 -4 -8 -10 -11 -5 -3 -10 -1 -10 4 0 6 5 11 10 11 6 0 10 -2 10 -4z
m39 -23 c1 9 6 17 13 17 6 0 8 -3 5 -7 -4 -3 -2 -11 3 -18 5 -6 10 -26 12 -43
1 -18 6 -32 10 -32 4 0 8 -8 8 -18 0 -10 3 -22 7 -26 4 -3 9 -14 12 -24 9 -35
11 -2650 2 -2675 -8 -19 -19 -27 -52 -32 -30 -5 -44 -4 -50 6 -5 8 -8 95 -8
194 1 99 1 252 1 340 0 88 0 252 0 365 0 113 0 394 -1 625 0 231 0 611 -1 845
0 498 1 460 -11 460 -6 0 -8 4 -4 10 3 5 12 7 20 3 11 -3 15 2 16 18 l1 24 8
-25 c5 -17 8 -19 9 -7z"/>
<path d="M14088 20398 c5 -5 16 -8 23 -6 8 3 3 7 -10 11 -17 4 -21 3 -13 -5z"/>
<path d="M12820 20320 c0 -5 5 -10 11 -10 5 0 7 5 4 10 -3 6 -8 10 -11 10 -2
0 -4 -4 -4 -10z"/>
<path d="M14030 20322 c0 -8 118 -42 142 -42 24 1 -46 33 -82 37 -19 2 -41 6
-47 8 -7 3 -13 1 -13 -3z"/>
<path d="M12574 20238 c-12 -13 -24 -31 -27 -41 -9 -25 18 -74 51 -92 68 -37
96 -80 108 -165 4 -30 8 -225 8 -432 0 -208 3 -378 6 -378 3 0 4 -35 2 -77 -2
-43 -4 -123 -3 -178 0 -55 0 -113 0 -130 -2 -40 -2 -87 -1 -235 1 -69 1 -247
0 -397 0 -149 3 -277 7 -284 5 -7 4 -10 -3 -5 -7 4 -10 -6 -9 -29 1 -19 5 -35
9 -35 4 0 5 -7 2 -15 -4 -8 -1 -22 6 -30 10 -12 9 -15 -4 -15 -12 0 -14 -5 -7
-23 5 -13 6 -42 1 -65 -4 -23 -5 -42 -1 -42 3 0 5 -37 3 -81 -3 -60 0 -84 10
-90 10 -7 11 -9 0 -9 -7 0 -10 -5 -7 -10 4 -6 12 -8 18 -4 7 3 5 0 -3 -8 -9
-8 -15 -30 -15 -55 0 -24 -3 -43 -7 -43 -3 0 -4 -33 -1 -72 3 -40 5 -80 4 -88
-2 -62 -1 -122 4 -130 3 -5 1 -11 -4 -14 -6 -4 -8 -71 -5 -164 3 -86 5 -166 4
-177 -2 -63 -2 -208 -1 -260 2 -33 -1 -90 -4 -127 -5 -41 -4 -73 2 -80 15 -20
1 -478 -18 -596 -8 -52 -7 -65 6 -78 13 -14 21 -52 15 -79 -6 -27 -7 -334 -1
-330 4 2 4 -26 0 -63 -8 -78 -4 -276 6 -291 3 -6 3 -17 -2 -23 -11 -18 -12
-635 -1 -682 5 -21 6 -45 2 -55 -10 -23 -11 -575 0 -582 4 -4 2 -22 -4 -42
-10 -25 -11 -48 -3 -85 5 -28 6 -57 2 -64 -5 -7 -8 -168 -8 -358 0 -190 1
-367 1 -395 1 -485 -2 -628 -12 -640 -8 -9 -5 -26 9 -63 11 -28 18 -61 15 -74
-9 -35 -12 -453 -5 -535 4 -40 3 -80 -2 -89 -9 -16 -9 -89 -2 -299 2 -55 4
-144 5 -198 0 -61 4 -95 10 -92 6 4 2 -15 -8 -42 -12 -30 -16 -57 -12 -73 8
-30 4 -396 -5 -426 -4 -12 -1 -27 8 -35 7 -8 12 -23 10 -34 -11 -61 -12 -88
-4 -103 6 -11 4 -31 -5 -57 -8 -22 -11 -53 -8 -69 5 -22 6 -378 3 -921 -1 -41
-1 -372 -1 -415 0 -25 1 -83 1 -130 1 -47 1 -103 0 -125 -1 -22 0 -87 1 -144
2 -87 -1 -107 -14 -117 -15 -11 -15 -13 -1 -27 11 -11 15 -33 14 -74 -1 -32 1
-123 5 -203 11 -224 11 -244 2 -265 -13 -28 -15 -45 -8 -45 4 0 7 -65 7 -145
0 -80 4 -145 8 -145 5 0 5 -5 1 -11 -6 -10 -15 -392 -12 -509 1 -30 0 -318 -1
-640 -3 -793 -1 -931 10 -951 5 -10 5 -20 0 -23 -4 -3 -9 -122 -10 -263 -2
-374 -6 -449 -26 -480 l-17 -26 43 7 c69 10 77 26 79 168 1 68 2 134 2 148 0
14 0 61 0 105 -1 44 -2 166 -2 270 -1 105 -3 208 -5 230 -3 42 6 55 42 55 12
0 24 4 27 9 9 13 -4 41 -19 41 -6 0 -19 8 -28 18 -14 15 -17 43 -18 153 0 74
0 145 0 159 6 117 7 1605 1 1638 -4 23 -5 42 -1 42 3 0 5 48 4 107 0 60 -1
137 0 173 3 247 -2 363 -17 377 -3 3 0 15 6 27 14 26 19 246 6 263 -6 7 -7 17
-3 24 13 19 6 237 -7 258 -16 27 0 41 18 17 10 -14 17 -17 25 -9 7 7 3 26 -14
64 -17 40 -21 63 -16 87 4 18 6 495 5 1060 -1 565 2 1042 7 1061 5 21 5 36 -1
40 -6 3 -8 50 -6 111 2 58 4 110 3 115 0 6 -2 568 -4 1250 -2 682 -4 1267 -4
1300 0 33 0 152 0 265 0 113 0 241 -1 285 -1 44 -1 82 0 85 7 20 5 442 -2 446
-4 3 -5 10 -2 16 4 6 6 100 5 210 -3 226 -4 223 78 168 62 -42 74 -37 21 10
-105 92 -99 84 -93 128 3 23 2 49 -2 59 -4 10 -6 155 -5 323 2 287 2 663 0
1058 -1 106 -5 172 -11 172 -6 0 -7 5 -3 11 4 6 8 55 10 108 1 53 3 98 4 101
1 3 2 9 1 13 -1 8 0 219 2 302 2 86 -7 215 -15 215 -4 0 -8 5 -8 11 0 5 5 7
11 4 7 -5 9 20 7 79 -2 47 -7 86 -12 86 -5 0 -4 6 2 13 13 16 16 276 2 311 -5
15 -6 25 -2 22 4 -2 9 5 9 17 2 18 0 19 -8 7 -8 -11 -9 -7 -5 17 3 19 1 35 -6
39 -8 5 -6 11 4 18 11 8 16 31 17 81 0 39 1 81 1 95 1 14 -1 72 -4 130 -6 128
-8 242 -5 255 12 48 10 594 -2 617 -5 10 -6 18 -1 18 5 0 8 24 8 52 -1 51 0
53 29 59 17 4 24 7 17 8 -14 1 -42 61 -45 92 -1 11 -4 19 -8 19 -4 0 -4 14 1
31 11 37 12 776 2 834 -7 37 -10 40 -42 42 -19 2 -60 5 -90 9 -49 5 -57 3 -76
-18z m181 -2758 c-3 -5 -12 -10 -18 -10 -7 0 -6 4 3 10 19 12 23 12 15 0z"/>
<path d="M13072 20245 c-32 -14 -62 -50 -62 -75 0 -8 32 -46 70 -85 53 -53 70
-76 70 -97 0 -16 5 -28 11 -28 5 0 7 -5 4 -10 -7 -12 18 -40 35 -40 6 0 8 -5
4 -12 -4 -7 -3 -8 4 -4 14 9 3 38 -12 30 -6 -3 0 4 14 15 14 11 20 21 13 21
-9 0 -8 11 3 43 18 52 22 164 6 194 -24 44 -109 69 -160 48z"/>
<path d="M13474 20211 c-24 -14 -33 -28 -36 -54 -3 -32 -1 -36 25 -41 40 -8
87 -58 87 -93 0 -44 13 -56 49 -48 31 7 31 7 33 73 2 115 0 135 -20 155 -29
29 -99 33 -138 8z"/>
<path d="M13846 20158 c-30 -49 -28 -62 19 -112 25 -27 45 -45 45 -40 0 5 4 3
9 -5 14 -22 41 -5 42 26 0 15 2 37 5 48 14 71 -84 139 -120 83z"/>
<path d="M14084 20113 c-20 -31 -23 -98 -6 -115 8 -8 18 -8 37 0 19 9 25 9 26
-1 1 -20 18 26 18 51 1 32 -28 92 -44 92 -7 0 -21 -12 -31 -27z"/>
<path d="M11986 20074 c-8 -21 1 -34 25 -34 14 0 19 7 19 25 0 29 -34 36 -44
9z"/>
<path d="M11062 20020 c-6 -15 -7 -96 -2 -195 3 -93 7 -3671 7 -7950 1 -4942
4 -7780 10 -7782 6 -2 16 4 24 13 14 17 18 3223 19 13832 l0 2024 -25 41 c-24
41 -24 41 -33 17z"/>
<path d="M13564 19932 c-15 -9 -10 -67 6 -87 12 -14 15 -14 31 0 49 45 17 122
-37 87z"/>
<path d="M13180 19708 c0 -22 17 -41 24 -29 4 6 2 11 -4 11 -7 0 -10 7 -6 15
3 8 1 15 -4 15 -6 0 -10 -6 -10 -12z"/>
<path d="M11610 18361 c0 -6 5 -13 10 -16 6 -3 10 1 10 9 0 9 -4 16 -10 16 -5
0 -10 -4 -10 -9z"/>
<path d="M11603 17614 c1 -15 8 -29 15 -32 17 -5 15 33 -2 48 -13 10 -15 7
-13 -16z"/>
<path d="M13180 17586 c0 -14 28 -42 35 -34 2 2 2 14 -2 26 -6 24 -33 31 -33
8z"/>
<path d="M13194 17518 c4 -20 26 -21 26 -1 0 14 -2 15 -9 4 -6 -9 -10 -10 -14
-2 -4 8 -5 8 -3 -1z"/>
<path d="M13581 17330 c-14 -12 -39 -20 -65 -21 l-41 -1 32 -14 c40 -17 86
-19 137 -6 28 8 50 7 82 -3 24 -7 41 -9 38 -4 -3 5 -11 9 -17 9 -7 0 -32 14
-56 30 -51 35 -77 37 -110 10z"/>
<path d="M13820 17260 c20 -13 53 -13 45 0 -3 6 -18 10 -33 10 -21 0 -24 -2
-12 -10z"/>
<path d="M11615 17241 c-3 -5 -1 -12 5 -16 5 -3 10 1 10 9 0 18 -6 21 -15 7z"/>
<path d="M13186 16291 c-4 -5 -2 -12 3 -15 5 -4 12 -2 15 3 4 5 2 12 -3 15 -5
4 -12 2 -15 -3z"/>
<path d="M13200 16250 c0 -6 -4 -8 -10 -5 -5 3 -10 1 -10 -4 0 -6 5 -11 11
-11 5 0 7 -4 4 -10 -3 -5 -4 -10 -1 -10 12 0 26 39 16 45 -5 3 -10 1 -10 -5z"/>
<path d="M13151 16095 c-23 -13 -23 -13 -2 -20 12 -3 21 -11 21 -17 0 -6 8
-16 17 -23 14 -11 20 -9 35 11 38 47 -12 81 -71 49z"/>
<path d="M11610 16081 c0 -6 4 -13 10 -16 6 -3 7 1 4 9 -7 18 -14 21 -14 7z"/>
<path d="M11962 15858 c6 -16 56 -53 63 -46 9 8 -35 58 -52 58 -8 0 -13 -5
-11 -12z"/>
<path d="M13153 15773 c-10 -3 -10 -8 1 -19 19 -18 22 -18 22 6 0 21 -2 22
-23 13z"/>
<path d="M13187 15088 c-5 -17 3 -48 13 -48 4 0 10 7 14 15 3 8 1 15 -4 15 -5
0 -7 7 -4 15 4 8 2 15 -4 15 -6 0 -12 -6 -15 -12z"/>
<path d="M11586 14368 c3 -4 9 -8 15 -8 5 0 9 4 9 8 0 5 -7 9 -15 9 -8 0 -12
-4 -9 -9z"/>
<path d="M11980 14151 c0 -6 5 -13 10 -16 6 -3 10 1 10 9 0 9 -4 16 -10 16 -5
0 -10 -4 -10 -9z"/>
<path d="M13145 13380 c-7 -11 8 -41 29 -59 9 -8 14 -17 11 -21 -3 -5 3 -7 12
-6 10 2 18 7 18 12 1 5 5 20 9 33 6 19 4 28 -10 38 -21 15 -60 17 -69 3z"/>
<path d="M11654 13145 c10 -8 23 -12 28 -9 14 9 -2 24 -25 24 -21 -1 -21 -1
-3 -15z"/>
<path d="M13911 13061 c-18 -12 -6 -30 19 -28 12 1 20 8 20 19 0 19 -16 23
-39 9z"/>
<path d="M14115 13060 c-3 -5 3 -10 14 -10 12 0 21 5 21 10 0 6 -6 10 -14 10
-8 0 -18 -4 -21 -10z"/>
<path d="M13206 13003 c-6 -14 -5 -15 5 -6 7 7 10 15 7 18 -3 3 -9 -2 -12 -12z"/>
<path d="M13127 12914 c-8 -8 3 -34 14 -34 11 0 12 27 0 34 -4 3 -11 3 -14 0z"/>
<path d="M11991 12531 c-16 -10 -6 -31 15 -31 8 0 14 9 14 20 0 22 -7 25 -29
11z"/>
<path d="M13080 12303 c0 -9 49 -42 82 -55 11 -5 21 -1 27 9 7 13 3 20 -17 30
-32 17 -92 27 -92 16z"/>
<path d="M11979 11158 c9 -25 31 -36 31 -16 0 15 -19 38 -32 38 -4 0 -4 -10 1
-22z"/>
<path d="M13180 10726 c0 -8 -7 -16 -15 -20 -34 -13 -3 -63 33 -52 28 9 21 86
-9 86 -5 0 -9 -6 -9 -14z"/>
<path d="M12605 10390 c4 -6 11 -8 16 -5 14 9 11 15 -7 15 -8 0 -12 -5 -9 -10z"/>
<path d="M11607 9812 c3 -12 9 -25 14 -28 14 -8 11 10 -6 32 -13 18 -14 18 -8
-4z"/>
<path d="M12470 9338 c0 -16 19 -38 33 -38 4 0 7 10 5 22 -3 25 -38 39 -38 16z"/>
<path d="M13187 9189 c-14 -8 -15 -14 -5 -32 6 -12 10 -24 8 -27 -2 -3 5 -7
14 -8 11 -2 16 0 12 6 -3 6 0 13 6 16 11 5 11 7 0 12 -6 3 -10 10 -6 15 3 5 0
9 -6 9 -6 0 -8 5 -5 10 8 12 5 12 -18 -1z"/>
<path d="M11584 9053 c-1 -10 -4 -25 -8 -34 -5 -10 -2 -16 8 -16 8 0 13 4 10
9 -3 4 1 8 8 8 10 0 10 2 -1 9 -9 6 -10 11 -2 15 6 4 9 12 6 17 -10 15 -21 10
-21 -8z"/>
<path d="M11580 8761 c0 -6 4 -13 10 -16 6 -3 7 1 4 9 -7 18 -14 21 -14 7z"/>
<path d="M13616 8347 c3 -10 9 -15 12 -12 3 3 0 11 -7 18 -10 9 -11 8 -5 -6z"/>
<path d="M13606 8315 c6 -16 -13 -30 -59 -45 -49 -15 -43 -34 12 -38 33 -3 50
2 77 23 19 14 34 29 34 33 -1 4 -16 14 -34 23 -22 10 -32 11 -30 4z"/>
<path d="M11980 8265 c0 -8 7 -15 15 -15 8 0 15 7 15 15 0 8 -7 15 -15 15 -8
0 -15 -7 -15 -15z"/>
<path d="M13845 8263 c-11 -3 -24 -9 -29 -14 -15 -14 35 -10 69 6 29 13 29 13
5 13 -14 0 -34 -2 -45 -5z"/>
<path d="M14088 8263 c6 -2 18 -2 25 0 6 3 1 5 -13 5 -14 0 -19 -2 -12 -5z"/>
<path d="M13400 8220 c0 -5 7 -10 15 -10 8 0 15 5 15 10 0 6 -7 10 -15 10 -8
0 -15 -4 -15 -10z"/>
<path d="M12580 7910 c0 -5 5 -10 10 -10 6 0 10 5 10 10 0 6 -4 10 -10 10 -5
0 -10 -4 -10 -10z"/>
<path d="M12885 7590 c3 -5 8 -10 11 -10 2 0 4 5 4 10 0 6 -5 10 -11 10 -5 0
-7 -4 -4 -10z"/>
<path d="M13180 7468 c0 -4 4 -8 9 -8 6 0 12 4 15 8 3 5 -1 9 -9 9 -8 0 -15
-4 -15 -9z"/>
<path d="M13190 7080 c0 -5 5 -10 11 -10 5 0 7 5 4 10 -3 6 -8 10 -11 10 -2 0
-4 -4 -4 -10z"/>
<path d="M13185 6800 c-3 -5 3 -10 15 -10 12 0 18 5 15 10 -3 6 -10 10 -15 10
-5 0 -12 -4 -15 -10z"/>
<path d="M13580 6579 c0 -5 -5 -7 -12 -3 -7 4 -8 3 -4 -4 4 -6 13 -9 21 -6 8
4 12 10 9 15 -7 12 -14 11 -14 -2z"/>
<path d="M13422 6493 c4 -21 33 -25 33 -3 0 8 -8 16 -18 18 -14 3 -18 -1 -15
-15z"/>
<path d="M12430 6361 c0 -5 11 -16 25 -25 14 -9 25 -12 25 -7 0 5 -11 16 -25
25 -14 9 -25 12 -25 7z"/>
<path d="M11595 6240 c-8 -13 14 -42 26 -34 5 3 9 14 9 25 0 20 -24 26 -35 9z"/>
<path d="M11980 6161 c0 -6 5 -13 10 -16 6 -3 10 1 10 9 0 9 -4 16 -10 16 -5
0 -10 -4 -10 -9z"/>
<path d="M13180 5995 c-7 -8 -17 -12 -24 -8 -8 4 -8 3 0 -6 13 -14 44 -4 44
15 0 18 -5 18 -20 -1z"/>
<path d="M13175 5490 c-3 -5 -1 -10 4 -10 6 0 11 5 11 10 0 6 -2 10 -4 10 -3
0 -8 -4 -11 -10z"/>
<path d="M11597 5129 c-16 -9 -16 -12 -2 -32 8 -12 15 -29 15 -39 0 -10 4 -18
9 -18 9 0 8 86 -1 95 -2 2 -11 -1 -21 -6z"/>
<path d="M11610 4886 c0 -8 5 -18 10 -21 6 -3 10 1 10 9 0 8 -4 18 -10 21 -5
3 -10 -1 -10 -9z"/>
<path d="M11610 4801 c0 -5 5 -13 10 -16 6 -3 10 -2 10 4 0 5 -4 13 -10 16 -5
3 -10 2 -10 -4z"/>
<path d="M13171 4380 c-22 -13 -3 -85 23 -85 14 0 20 7 20 27 2 36 -24 71 -43
58z"/>
<path d="M13184 4168 c-5 -7 -3 -8 6 -3 10 6 12 1 8 -19 -3 -14 -1 -29 5 -33
5 -3 7 -1 3 5 -3 6 -2 13 3 16 11 7 3 46 -10 46 -4 0 -11 -5 -15 -12z"/>
<path d="M11137 3789 c9 -8 128 -20 120 -12 -3 3 -33 8 -67 12 -33 4 -57 4
-53 0z"/>
<path d="M10920 3645 c0 -1 11 -15 25 -31 16 -18 24 -39 23 -54 -3 -21 4 -27
62 -48 180 -65 621 -108 1240 -118 431 -8 839 6 1365 46 290 23 554 71 663
121 65 30 72 39 48 59 -12 9 -40 6 -133 -13 -117 -25 -305 -52 -438 -62 -38
-4 -79 -8 -90 -10 -93 -18 -1183 -27 -1400 -11 -49 4 -153 9 -230 11 -145 5
-221 9 -340 19 -38 4 -95 8 -125 11 -30 3 -86 7 -125 11 -38 3 -77 6 -85 6 -8
0 -44 4 -80 9 -36 5 -81 11 -100 13 -73 9 -185 28 -194 34 -9 5 -86 12 -86 7z"/>
<path d="M11843 3594 c-3 -9 0 -20 8 -24 15 -10 39 6 39 26 0 19 -39 18 -47
-2z"/>
<path d="M10923 3347 c6 -19 122 -44 312 -67 343 -42 436 -48 800 -55 132 -3
295 -7 363 -10 79 -4 122 -2 122 5 0 12 1 12 -85 15 -355 13 -461 18 -466 21
-4 2 -78 6 -165 9 -173 5 -217 9 -434 31 -270 27 -310 32 -325 44 -5 4 -36 10
-68 13 -42 4 -57 2 -54 -6z"/>
<path d="M10930 3250 c0 -16 50 -60 77 -66 13 -4 23 -10 23 -14 0 -4 8 -7 17
-6 11 0 19 -7 21 -19 2 -17 9 -20 40 -18 20 1 29 0 20 -3 -10 -3 -18 -13 -18
-22 0 -12 -3 -13 -12 -4 -7 7 -16 12 -20 12 -9 0 -7 -60 2 -61 3 0 14 -3 25
-6 11 -2 32 -5 48 -5 15 0 26 -5 25 -12 -1 -6 4 -22 11 -35 10 -19 15 -21 22
-10 7 11 9 11 9 1 0 -7 5 -10 10 -7 13 8 42 -14 35 -25 -3 -5 -1 -12 5 -15 6
-4 10 -3 9 2 -1 4 2 19 7 32 7 23 8 23 14 5 4 -10 3 -26 -3 -34 -6 -8 -7 -12
-3 -8 5 4 15 0 21 -9 10 -13 32 -18 101 -20 49 -1 109 -8 134 -15 47 -14 266
-17 328 -4 17 3 32 2 32 -2 0 -9 109 -8 163 1 15 3 27 1 27 -4 0 -17 19 -9 25
12 6 19 8 19 20 3 18 -25 93 -20 118 7 10 11 22 17 27 14 5 -3 11 -1 15 5 4 6
11 8 16 5 5 -4 9 -2 9 2 0 12 99 8 111 -4 8 -8 21 -7 45 3 19 8 34 11 34 8 0
-4 8 0 17 7 14 12 16 12 8 0 -6 -10 -4 -12 4 -6 7 4 43 9 79 10 37 1 69 4 72
5 3 1 8 2 13 1 10 -2 9 17 -2 24 -5 3 -13 1 -16 -5 -5 -8 -11 -7 -21 1 -7 6
-21 9 -29 5 -9 -3 -13 -2 -10 4 3 6 0 10 -9 10 -8 0 -22 3 -32 7 -12 4 -15 3
-10 -5 8 -13 -16 -17 -28 -5 -8 8 -53 13 -112 13 -23 0 -33 5 -37 19 -6 25 1
32 22 22 18 -8 122 -7 251 2 47 4 159 9 250 12 167 5 420 21 475 30 17 2 73 7
125 11 128 9 130 9 170 22 19 6 98 18 174 27 180 21 213 38 56 30 -63 -3 -151
-10 -195 -15 -246 -28 -444 -35 -955 -34 -516 2 -795 9 -885 25 -33 5 -112 12
-175 15 -63 2 -126 7 -140 11 -33 8 -79 11 -230 18 -69 3 -143 9 -165 15 -196
46 -255 56 -255 40z m1453 -234 c4 -10 1 -13 -8 -9 -8 3 -12 9 -9 14 7 12 11
11 17 -5z"/>
<path d="M12568 3223 c7 -3 16 -2 19 1 4 3 -2 6 -13 5 -11 0 -14 -3 -6 -6z"/>
<path d="M11051 3144 c0 -11 3 -14 6 -6 3 7 2 16 -1 19 -3 4 -6 -2 -5 -13z"/>
<path d="M13587 2994 c-11 -11 15 -53 29 -47 22 8 18 53 -4 53 -10 0 -21 -3
-25 -6z"/>
<path d="M10546 2771 c26 -26 140 -71 224 -90 455 -101 1030 -146 1782 -139
214 2 388 6 388 9 0 3 -11 16 -25 29 -24 22 -26 23 -38 6 -12 -16 -34 -18
-222 -18 -165 -1 -529 9 -625 17 -8 1 -100 5 -205 9 -104 5 -199 10 -210 11
-11 1 -60 5 -110 9 -85 7 -252 28 -485 62 -129 19 -375 70 -431 89 -48 17 -57
18 -43 6z"/>
<path d="M13330 2580 l-55 -7 58 -1 c32 -1 57 2 57 8 0 6 -1 9 -2 8 -2 -1 -28
-4 -58 -8z"/>
<path d="M13404 2583 c7 -7 87 -5 95 3 2 2 -20 4 -49 4 -29 0 -50 -3 -46 -7z"/>
<path d="M10490 2432 c0 -10 37 -34 85 -54 l40 -17 -35 0 c-19 -1 -57 6 -84
14 -27 8 -51 13 -54 11 -11 -12 13 -68 38 -90 94 -79 571 -161 1080 -186 124
-6 243 -13 265 -16 53 -6 1203 -6 1213 0 5 3 64 6 133 7 244 3 569 28 839 64
201 27 464 75 520 95 76 28 124 49 110 50 -28 0 -144 -31 -157 -42 -7 -6 -13
-8 -13 -5 0 3 -17 1 -37 -4 -62 -13 -240 -37 -373 -49 -69 -6 -141 -16 -161
-21 -20 -5 -76 -9 -125 -9 -49 0 -108 -5 -131 -10 -55 -13 -182 -14 -703 -7
-725 10 -890 17 -890 35 0 4 242 7 537 7 329 1 591 5 673 13 74 6 182 16 240
21 58 5 137 12 175 15 141 11 281 28 300 37 22 10 -150 5 -390 -11 -211 -15
-358 -22 -444 -23 -66 -1 -75 1 -92 24 -15 20 -19 21 -19 6 0 -36 -42 -39
-430 -33 -418 7 -628 14 -650 23 -8 3 -18 6 -22 5 -4 -1 -5 5 -2 13 4 11 -1
15 -17 15 -19 0 -21 -2 -9 -10 18 -11 12 -17 -22 -24 -30 -5 -42 2 -28 18 11
14 4 25 -37 54 -43 29 -52 28 -51 -9 1 -23 7 -33 25 -40 37 -14 27 -16 -44 -7
-38 4 -119 10 -182 13 -62 3 -116 7 -120 9 -9 6 -176 22 -273 27 -27 1 -48 5
-48 9 0 5 -16 6 -35 4 -33 -3 -65 15 -65 36 0 4 -9 6 -20 3 -12 -3 -18 -8 -15
-11 2 -3 0 -11 -6 -18 -9 -11 -16 -10 -36 6 -28 22 -48 27 -37 8 5 -7 3 -8 -7
-3 -7 5 -20 10 -29 11 -8 0 -42 7 -75 14 -33 6 -72 12 -87 11 -15 -1 -49 4
-75 10 -64 14 -143 20 -143 11z m385 -140 c-3 -3 -11 0 -18 7 -9 10 -8 11 6 5
10 -3 15 -9 12 -12z m35 -2 c0 -5 -4 -10 -10 -10 -5 0 -10 5 -10 10 0 6 5 10
10 10 6 0 10 -4 10 -10z m105 -12 c7 -6 -7 -8 -39 -6 -27 2 -51 8 -53 13 -4
13 78 7 92 -7z m342 -44 c-3 -3 -12 -4 -19 -1 -8 3 -5 6 6 6 11 1 17 -2 13 -5z
m308 -10 c85 -4 139 -10 125 -14 -29 -8 -189 -6 -310 5 -47 4 -91 7 -97 8 -7
0 -13 3 -13 7 0 4 33 5 73 4 39 -2 140 -7 222 -10z m305 -20 c0 -2 -9 -4 -20
-4 -11 0 -20 4 -20 9 0 5 9 7 20 4 11 -3 20 -7 20 -9z"/>
<path d="M14388 2363 c6 -2 18 -2 25 0 6 3 1 5 -13 5 -14 0 -19 -2 -12 -5z"/>
<path d="M14269 2346 c-2 -3 -33 -7 -69 -10 -98 -10 -139 -17 -145 -26 -9 -15
150 5 240 30 29 8 29 8 4 9 -14 1 -28 -1 -30 -3z"/>
<path d="M12817 2023 c-18 -18 -5 -33 30 -33 35 0 36 0 18 20 -18 20 -36 25
-48 13z"/>
<path d="M11832 1948 c2 -12 11 -24 21 -26 14 -3 18 1 15 20 -2 12 -11 24 -21
26 -14 3 -18 -1 -15 -20z"/>
<path d="M12796 1952 c-3 -6 -1 -14 5 -17 15 -10 25 3 12 16 -7 7 -13 7 -17 1z"/>
<path d="M11950 1925 c0 -29 1 -29 34 -14 30 14 24 39 -10 39 -19 0 -24 -5
-24 -25z"/>
<path d="M11710 1901 c0 -5 6 -14 14 -20 16 -13 32 2 21 19 -8 12 -35 13 -35
1z"/>
<path d="M10780 1832 c0 -13 34 -42 50 -42 10 0 10 3 0 16 -17 20 -50 37 -50
26z"/>
<path d="M12543 1833 c-26 -9 -13 -33 17 -33 17 0 30 4 30 10 0 13 -32 28 -47
23z"/>
<path d="M11593 1814 c-7 -20 14 -41 50 -49 24 -6 27 -4 27 17 0 13 -5 29 -12
36 -17 17 -58 15 -65 -4z"/>
<path d="M12880 1821 c0 -19 -74 -34 -146 -28 -59 4 -74 3 -78 -10 -10 -25 -7
-33 14 -33 12 0 35 -7 52 -16 29 -15 32 -15 44 1 7 9 24 23 38 31 23 11 27 11
36 -7 14 -26 27 -24 34 6 10 41 66 32 89 -15 7 -13 19 -25 27 -28 12 -4 13 -2
3 9 -7 7 -13 23 -13 36 0 32 -34 63 -70 63 -16 0 -30 -4 -30 -9z"/>
<path d="M13156 1794 c-4 -11 -1 -14 11 -12 9 2 18 9 21 16 6 18 -25 15 -32
-4z"/>
<path d="M13370 1760 c0 -11 6 -20 13 -20 19 0 27 10 20 26 -8 21 -33 17 -33
-6z"/>
<path d="M11262 1718 c7 -20 48 -23 48 -4 0 11 -9 16 -26 16 -16 0 -24 -5 -22
-12z"/>
<path d="M10607 1703 c-9 -14 21 -45 40 -41 29 5 23 42 -9 46 -14 2 -28 -1
-31 -5z"/>
<path d="M12866 1694 c-8 -22 -9 -21 14 -27 23 -6 27 15 6 32 -11 9 -15 8 -20
-5z"/>
<path d="M10933 1683 c-23 -8 -14 -33 12 -33 14 0 25 4 25 9 0 14 -24 29 -37
24z"/>
<path d="M13151 1676 c-11 -13 -9 -16 13 -22 32 -8 59 2 54 19 -7 18 -53 20
-67 3z"/>
<path d="M13300 1680 c0 -5 9 -10 20 -10 11 0 20 5 20 10 0 6 -9 10 -20 10
-11 0 -20 -4 -20 -10z"/>
<path d="M11435 1666 c-19 -14 -19 -15 -2 -22 22 -8 30 -1 25 21 -3 14 -5 14
-23 1z"/>
<path d="M12252 1663 c2 -10 10 -18 18 -18 8 0 16 8 18 18 2 12 -3 17 -18 17
-15 0 -20 -5 -18 -17z"/>
<path d="M12762 1664 c4 -20 34 -41 44 -31 8 8 -24 47 -38 47 -5 0 -8 -7 -6
-16z"/>
<path d="M10992 1644 c10 -10 20 -15 24 -12 3 4 -5 12 -18 18 -22 12 -22 12
-6 -6z"/>
<path d="M14020 1650 c0 -5 10 -15 23 -21 22 -12 22 -12 3 10 -21 23 -26 26
-26 11z"/>
<path d="M11030 1631 c0 -5 16 -19 35 -31 33 -20 34 -23 20 -43 -10 -14 -27
-22 -50 -24 -19 -1 -43 -6 -52 -12 -13 -8 3 -10 65 -11 45 0 82 4 82 9 0 22
34 41 71 41 29 0 39 -4 39 -16 0 -14 2 -14 16 1 10 9 20 13 23 8 3 -4 11 -12
16 -17 6 -6 3 -7 -7 -3 -10 3 -20 1 -24 -4 -3 -6 -15 -9 -25 -6 -10 3 -21 2
-24 -2 -2 -4 1 -8 8 -8 7 0 54 -3 105 -7 92 -7 93 -7 83 13 -16 29 -26 32 -47
16 -21 -16 -58 -20 -49 -6 7 12 -22 41 -41 41 -8 0 -25 9 -37 21 -18 17 -30
19 -65 14 -33 -5 -50 -2 -76 14 -35 22 -66 27 -66 12z"/>
<path d="M13427 1634 c-7 -7 13 -56 28 -66 20 -15 37 -9 30 10 -4 9 -8 22 -9
27 -5 29 -33 45 -49 29z"/>
<path d="M13250 1615 c-18 -21 -6 -29 27 -20 15 5 35 7 43 6 8 -1 4 5 -10 13
-32 20 -45 20 -60 1z"/>
<path d="M12667 1574 c3 -8 9 -14 14 -14 5 0 12 0 17 0 18 0 5 25 -15 26 -14
1 -20 -3 -16 -12z"/>
<path d="M13552 1568 c2 -6 10 -14 16 -16 7 -2 10 2 6 12 -7 18 -28 22 -22 4z"/>
<path d="M13169 1563 c-9 -2 -19 -15 -22 -29 -4 -22 -1 -24 39 -24 42 0 44 1
44 30 0 31 -14 36 -61 23z"/>
<path d="M10570 1534 c0 -8 -4 -12 -10 -9 -5 3 -10 2 -10 -3 0 -6 11 -9 24 -8
20 1 22 4 15 19 -12 21 -19 22 -19 1z"/>
<path d="M11450 1531 l-25 -19 28 -7 c15 -4 34 -5 42 -1 13 5 13 9 3 26 -16
24 -17 24 -48 1z"/>
<path d="M11736 1535 c-8 -8 -27 -16 -43 -16 -21 -1 -18 -3 13 -8 22 -4 65 -4
95 0 30 3 42 7 28 8 -15 0 -29 8 -33 16 -3 8 -14 15 -25 15 -11 0 -26 -7 -35
-15z m47 -2 c-7 -2 -19 -2 -25 0 -7 3 -2 5 12 5 14 0 19 -2 13 -5z"/>
<path d="M12301 1529 l-23 -19 28 -1 c16 0 38 -2 50 -3 11 -1 29 1 40 5 18 7
18 8 -1 8 -11 1 -32 7 -46 15 -22 11 -28 11 -48 -5z"/>
<path d="M12010 1524 c-23 -12 -17 -14 59 -14 93 0 102 4 27 14 -27 4 -52 8
-55 10 -3 1 -17 -3 -31 -10z"/>
<path d="M12908 1533 c7 -3 16 -2 19 1 4 3 -2 6 -13 5 -11 0 -14 -3 -6 -6z"/>
<path d="M13376 1524 c-4 -10 2 -14 19 -14 30 0 33 16 6 23 -12 3 -22 -1 -25
-9z"/>
<path d="M10785 1520 c-28 -7 -27 -8 13 -9 23 0 42 4 42 9 0 11 -11 11 -55 0z"/>
<path d="M13585 1519 c-11 -4 -15 -8 -10 -9 6 -1 20 -3 32 -6 12 -2 24 0 27 5
8 12 -26 19 -49 10z"/>
<path d="M10858 1513 c7 -3 16 -2 19 1 4 3 -2 6 -13 5 -11 0 -14 -3 -6 -6z"/>
<path d="M11888 1513 c6 -2 18 -2 25 0 6 3 1 5 -13 5 -14 0 -19 -2 -12 -5z"/>
<path d="M12918 1513 c7 -3 16 -2 19 1 4 3 -2 6 -13 5 -11 0 -14 -3 -6 -6z"/>
</g>
</svg>
